<svg xmlns="http://www.w3.org/2000/svg" fill="none" viewBox="0 0 195 68">
  <path fill="#502A73" d="M150.869 24.023c.188 0 .353.165.353.33v7.488a.779.779 0 0 1-.282.565c-1.412 1.2-3.58 1.909-5.841 1.909-5.088 0-8.479-3.392-8.479-8.48 0-5.087 3.391-8.478 8.479-8.478 1.744 0 3.579.517 4.946 1.365.189.094.259.282.212.423l-1.177 3.462c-.07.165-.235.235-.447.188-.965-.517-2.214-.823-3.391-.823-2.167 0-3.626 1.553-3.626 3.861 0 2.309 1.459 3.91 3.626 3.91.871 0 1.459-.165 1.72-.448V27.93h-2.167c-.212 0-.353-.094-.377-.259l-.306-3.25c-.023-.235.118-.4.377-.4h6.38v.002Zm10.903 5.087c.159 0 .298.119.298.256V32.4c0 .139-.139.278-.298.278h-9.221c-.139 0-.278-.158-.317-.298V19.271c0-.177.099-.278.278-.278h9.025c.177 0 .317.14.317.279v2.995c0 .177-.14.297-.317.297h-5.176v1.566h4.205c.177 0 .278.14.258.257l-.278 2.777c-.019.12-.158.257-.338.257h-3.847v1.686h5.411v.002Zm29.573 0c.158 0 .297.119.297.256V32.4c0 .139-.139.278-.297.278h-9.221c-.14 0-.279-.158-.317-.298V19.271c0-.177.098-.278.278-.278h9.025c.177 0 .316.14.316.279v2.995c0 .177-.139.297-.316.297h-5.176v1.566h4.204c.178 0 .278.14.259.257l-.278 2.777c-.019.12-.158.257-.338.257h-3.847v1.686h5.411v.002Zm-16.78-10.115c.177 0 .297.14.297.298v13.109c0 .139-.12.278-.297.278h-3.432c-.139 0-.317-.098-.418-.257l-3.451-6.168v6.149c0 .14-.119.278-.297.278h-3.511a.285.285 0 0 1-.278-.278V19.293c0-.158.12-.297.278-.297h3.432c.177 0 .376.098.456.256l3.431 6.169v-6.128c0-.158.139-.297.279-.297h3.511Zm5.515 0c.178 0 .298.14.298.298v13.109a.29.29 0 0 1-.298.278h-3.511a.299.299 0 0 1-.278-.278v-13.11c0-.157.139-.297.278-.297h3.511Z"/>
  <path fill="#522A74" d="M.815 18.373h1.532l3.049 10.755 4.276-10.755h.31l4.228 10.755 3.1-10.755h1.52l-4.288 14.925h-.276L9.839 22.006 5.325 33.298h-.278L.815 18.373Zm20.575 0h1.494v14.925h-1.493V18.373Zm4.922 14.925V18.373h.325l9.932 11.44v-11.44h1.47v14.925h-.337l-9.848-11.3v11.3h-1.542Zm15.359 0V18.373h3.096c2.232 0 3.851.18 4.86.539 1.445.507 2.575 1.386 3.39 2.638.816 1.252 1.224 2.743 1.224 4.474 0 1.493-.323 2.811-.969 3.945-.646 1.136-1.485 1.975-2.516 2.516-1.034.542-2.476.811-4.34.811h-4.745v.002Zm1.432-1.408h1.724c2.063 0 3.492-.128 4.29-.385 1.123-.365 2.007-1.022 2.649-1.972.644-.95.965-2.11.965-3.484 0-1.373-.347-2.668-1.044-3.688-.696-1.02-1.667-1.72-2.912-2.099-.933-.285-2.471-.426-4.615-.426h-1.055v12.055h-.002ZM64.24 17.998c2.26 0 4.152.754 5.673 2.262 1.526 1.508 2.285 3.365 2.285 5.57 0 2.203-.761 4.037-2.278 5.56-1.52 1.521-3.374 2.283-5.561 2.283s-4.082-.758-5.603-2.275c-1.522-1.514-2.283-3.348-2.283-5.498 0-1.434.344-2.762 1.04-3.988a7.568 7.568 0 0 1 2.837-2.876 7.666 7.666 0 0 1 3.89-1.038Zm.066 1.451c-1.104 0-2.15.289-3.14.864a6.215 6.215 0 0 0-2.316 2.326c-.557.976-.833 2.063-.833 3.259 0 1.773.614 3.271 1.843 4.493 1.23 1.221 2.712 1.833 4.445 1.833 1.16 0 2.232-.282 3.218-.843a6.021 6.021 0 0 0 2.305-2.304c.552-.976.83-2.058.83-3.25 0-1.192-.276-2.257-.83-3.214-.55-.956-1.329-1.724-2.332-2.3a6.302 6.302 0 0 0-3.19-.864Zm10.044-1.076h1.533l3.048 10.755 4.277-10.755h.31l4.228 10.755 3.1-10.755h1.52l-4.288 14.925h-.276l-4.429-11.292-4.514 11.292h-.278l-4.23-14.925Z"/>
  <path fill="#fff" d="M114.386 42.672c10.28 0 18.614-8.334 18.614-18.614 0-10.28-8.334-18.614-18.614-18.614-10.281 0-18.614 8.333-18.614 18.614 0 10.28 8.333 18.614 18.614 18.614Z"/>
  <path fill="#BAD9EA" d="M126.417 36.091c6.644-6.644 6.644-17.416 0-24.06-6.644-6.645-17.417-6.645-24.061 0-6.644 6.644-6.644 17.416 0 24.06 6.644 6.645 17.417 6.645 24.061 0Z"/>
  <mask id="a" width="34" height="34" x="97" y="7" maskUnits="userSpaceOnUse" style="mask-type:luminance">
    <path fill="#fff" d="M114.384 40.618c9.143 0 16.555-7.413 16.555-16.556 0-9.144-7.412-16.556-16.555-16.556-9.144 0-16.556 7.412-16.556 16.556 0 9.143 7.412 16.556 16.556 16.556Z"/>
  </mask>
  <g mask="url(#a)">
    <path fill="#fff" fill-rule="evenodd" d="M108.829 54.826a8.474 8.474 0 0 1-3.316-1.163 10.917 10.917 0 0 1-2.463-1.988c-1.587-1.72-2.492-3.813-2.691-6.224-.111-1.357.135-2.617.732-3.744 1.054-1.992 3.019-3.075 4.985-3.948 1.091-.485 1.853-.947 2.432-1.482a.644.644 0 0 1-.113-.514.703.703 0 0 1 .096-.235 1.387 1.387 0 0 1-.492-.62 1.027 1.027 0 0 1 .116-.966 3.097 3.097 0 0 1-.191-.271 6.515 6.515 0 0 1-.652.034c-.362 0-.676-.036-.933-.11a4.88 4.88 0 0 1-1.014-.416 2.302 2.302 0 0 1-.114-.071 1.108 1.108 0 0 0-.1-.062h-.039c-.06 0-.126.008-.192.017-.088.01-.174.02-.253.02-.43 0-.918-.035-1.307-.285a.49.49 0 0 1-.218-.178c-.43-.44-.426-1.299-.343-1.953l-.004-.216c-.154-.225-.334-.428-.522-.644-.22-.25-.449-.51-.635-.807-.542-.866-1.068-1.827-1.068-3.194 0-1.107.419-2.106 1.284-3.053.629-.692 1.399-1.244 2.351-1.682.101-.805.873-1.042 1.446-1.22l.14-.043c.46-.145.99-.252 1.668-.335l.124-.017c.161-.022.328-.043.488-.045h.032c.33 0 .657.05.92.092a1.967 1.967 0 0 1 .495.151c.038-.427.057-.881-.024-1.266-.113.013-.237.02-.37.02a6.5 6.5 0 0 1-.691-.044c-.342-.038-.815-.124-1.13-.327-.235-.152-.477-.462-.379-.837.09-.348.439-.485.694-.586l.036-.015a6.833 6.833 0 0 0 1.147-.586 2.603 2.603 0 0 0-.379-.47 5.612 5.612 0 0 1-.274-.309c-.152-.194-.316-.432-.325-.779-.006-.312.109-.58.214-.815a6.4 6.4 0 0 1 .383-.716c.09-.152.18-.306.261-.465.131-.252.229-.532.334-.828.051-.145.105-.293.16-.438.366-.942 1.235-1.419 2.583-1.419.353 0 .639.017.892.1.582.193 1.014.563 1.433.923l.045.038c.169-.222.407-.47.833-.477.787 0 1.065.723 1.268 1.252l.077.197c.017.04.037.077.058.115l.051.099c.12.252.236.524.349.787l.075.173c.137.32.291.678.291 1.2 0 .155-.015.339-.034.476.051.094.107.19.162.286.195.343.398.698.561 1.104.09.225.152.49.212.745l.141.599c.041.169.131.933.139 1.053.007.076.007.15 0 .222.584-.39 1.468-.916 2.375-1.217.338-.261.783-.4 1.288-.4.862 0 1.324.408 1.695.738.012.012.072.072.087.083h.017c.052 0 .109-.004.169-.008a2.24 2.24 0 0 1 .199-.011h.045c1.081.05 1.922.41 2.645 1.134a4.214 4.214 0 0 1 1.191 2.383l.668-.098-.931 2.751c-.169.542-.366.978-.599 1.329a8.71 8.71 0 0 0-.661 1.147l-.242.597-.055.167.197.663c.006.021.089.346.079.753a1.529 1.529 0 0 1-.293 1.023 1.45 1.45 0 0 1-.112.145l-.057.064c-.204.23-.484.473-.946.473h-.032a3.094 3.094 0 0 1-.323.034l-.009.015c-.265.435-.573.78-.909 1.023-.638.462-1.455.777-2.491.956.048.704-.237 1.301-.77 1.59.034.321.041.723-.117 1.044a2.224 2.224 0 0 1-.283.42 1.747 1.747 0 0 1-.122.122c-.034.032-.09.083-.111.11-.004.046.006.125.013.185.008.079.017.156.017.224-.013.544-.327.803-.58 1.01-.008.007-.017.015-.028.022.056.258-.038.528-.16.708-.043.064-.092.111-.131.15a.256.256 0 0 0-.049.053.291.291 0 0 0-.006.069 1.634 1.634 0 0 1-.009.098c-.139.914-.618 1.714-1.463 2.443a10.504 10.504 0 0 1-2.446 1.564c-.729.345-1.521.644-2.287.935-1.083.411-2.202.837-3.171 1.393-.896.514-1.549 1.087-1.994 1.752-.595.89-.89 1.748-.956 2.786-.12 1.87.537 2.948 1.562 3.992.263.268.532.512.742.668.017.013.039.026.058.038.092.06.257.165.261.35l.023.012-.066.214c-.011.03-.015.062-.023.096-.015.073-.03.154-.071.234l-.081.164-.189-.03Z" clip-rule="evenodd"/>
    <path fill="#fff" d="M111.709 10.029c.315 0 .589.012.811.087.646.214 1.119.691 1.603 1.09.199-.257.365-.587.791-.593h.013c.68 0 .884.776 1.095 1.29.035.081.077.152.114.227.143.303.284.64.417.95.146.336.272.646.27 1.097 0 .171-.022.396-.043.522.239.443.535.903.749 1.438.1.25.164.57.235.862l.105.445c.034.144.122.88.133 1.015.019.211-.033.417-.084.614 0 .044.004.09.004.134.484-.355 1.646-1.149 2.835-1.536.272-.222.664-.372 1.164-.374h.009c.727 0 1.117.319 1.517.674.042.038.122.128.169.139.03.006.066.008.107.008.113 0 .259-.019.366-.019h.032c1.131.053 1.882.466 2.475 1.06.591.59 1.04 1.383 1.151 2.494l.028.376-.308 1.887c-.146.473-.33.916-.574 1.282a9.22 9.22 0 0 0-.68 1.181l-.246.61c-.03.085-.06.171-.086.26l.219.739s.079.297.068.674a1.272 1.272 0 0 1-.244.884 1.388 1.388 0 0 1-.096.126c-.002 0-.002.004-.004.006l-.028.032-.013.015c-.186.21-.402.396-.762.396h-.049c-.135.024-.28.037-.445.037h-.015c-.026.044-.047.091-.073.134-.222.364-.505.706-.84.95-.692.5-1.584.796-2.624.952.14.783-.171 1.402-.716 1.633l-.041.049c.051.364.071.762-.073 1.053a1.877 1.877 0 0 1-.248.365c-.079.093-.263.223-.287.328-.032.135.024.331.02.475-.013.524-.36.69-.655.96.128.206.045.473-.068.645-.069.102-.172.154-.208.256-.026.07-.019.146-.03.218-.152 1.004-.742 1.74-1.376 2.288-.693.6-1.478 1.097-2.385 1.525-1.75.824-3.798 1.376-5.477 2.337-.826.472-1.558 1.05-2.08 1.83-.524.784-.922 1.68-.999 2.913-.131 2.03.652 3.188 1.634 4.189.219.223.512.499.773.693.087.067.229.127.216.208l-.002.008-.032.11h.004c-.032.094-.039.213-.079.297a8.261 8.261 0 0 1-3.218-1.13 10.73 10.73 0 0 1-2.407-1.94c-1.38-1.496-2.411-3.464-2.625-6.07-.122-1.472.211-2.677.704-3.605.999-1.887 2.873-2.949 4.861-3.832.994-.441 1.938-.959 2.663-1.684-.094-.154-.244-.272-.199-.494.032-.159.142-.246.219-.366-.416-.18-.863-.693-.604-1.248.045-.096.101-.16.178-.256-.135-.174-.27-.345-.377-.546a6.78 6.78 0 0 1-.791.052c-.306 0-.606-.028-.863-.101a4.536 4.536 0 0 1-.96-.396c-.094-.053-.204-.145-.287-.158a.594.594 0 0 0-.09-.007c-.139 0-.306.037-.445.037-.486 0-.888-.052-1.194-.261-.04-.011-.087-.04-.135-.111-.348-.339-.372-1.083-.282-1.774a14.982 14.982 0 0 1-.004-.308c-.353-.546-.856-.961-1.196-1.507-.507-.813-1.029-1.735-1.029-3.06 0-1.249.59-2.192 1.217-2.881.661-.725 1.464-1.267 2.407-1.684.009-.81.772-.984 1.416-1.19a9.225 9.225 0 0 1 1.624-.327c.197-.023.398-.058.584-.06h.03c.304 0 .61.047.882.09.139.022.269.069.396.12.057.024.117.05.177.066-.006.002-.01.002-.017.002l-.049.103c.071 0 .135-.004.184-.013l.088-.081a.321.321 0 0 1-.077.009.456.456 0 0 1-.131-.022c.154-.03.079-.015.193-.043.064-.627.105-1.283-.071-1.799-.169.036-.359.05-.556.05-.218 0-.447-.018-.663-.041-.401-.045-.788-.14-1.021-.287-.139-.09-.338-.298-.27-.559.06-.235.341-.333.576-.427a7.2 7.2 0 0 0 1.378-.732c-.167-.45-.518-.7-.775-1.03-.139-.177-.263-.363-.269-.626-.007-.253.09-.475.192-.706.18-.407.43-.768.636-1.168.203-.398.333-.848.505-1.29.344-.895 1.181-1.254 2.338-1.254Zm-10.492 14.41a4.76 4.76 0 0 1 .783-1.32c-.347.352-.636.78-.783 1.32Zm1.898 7.477a5.135 5.135 0 0 1-.069-.552c-.004.206.002.398.069.552Zm8.594-22.399c-1.463 0-2.413.533-2.822 1.582-.058.15-.111.297-.163.444-.102.287-.198.559-.32.796a7.45 7.45 0 0 1-.255.452 7.185 7.185 0 0 0-.396.742c-.109.248-.244.554-.235.925.008.404.188.686.378.93.095.12.193.225.289.328.071.075.137.145.197.218-.28.162-.575.306-.873.423l-.036.015c-.27.107-.723.287-.847.76-.131.507.181.918.487 1.117.358.229.871.325 1.241.366.27.03.505.045.719.045.054 0 .105 0 .154-.003.022.2.022.416.009.642a2.235 2.235 0 0 0-.221-.049 6.153 6.153 0 0 0-.96-.096h-.037c-.175.002-.35.026-.519.047l-.122.015c-.696.085-1.241.197-1.716.346l-.137.043c-.578.178-1.417.439-1.601 1.29-.926.443-1.683.997-2.308 1.684-.897.984-1.352 2.071-1.352 3.227 0 1.435.547 2.432 1.108 3.33.197.318.432.583.661.842.167.188.325.366.46.556.004.017.009.032.011.05-.141 1.041-.009 1.781.393 2.205a.771.771 0 0 0 .296.24c.44.274.967.312 1.427.312.1 0 .197-.01.282-.021.047-.007.096-.011.133-.013a1.76 1.76 0 0 0 .158.1c.342.19.704.339 1.07.441.28.08.616.12 1.001.12.165 0 .34-.006.524-.021l.013.019-.013.028a1.278 1.278 0 0 0-.036 1.014c.083.22.231.43.415.601-.013.034-.021.073-.03.113a.855.855 0 0 0 .045.508c-.541.462-1.243.872-2.217 1.307-2.006.892-4.015 2-5.107 4.06-.62 1.17-.877 2.478-.761 3.886.203 2.469 1.132 4.613 2.758 6.376a11.13 11.13 0 0 0 2.52 2.032 8.758 8.758 0 0 0 3.415 1.199l.363.047.163-.328c.053-.109.075-.218.092-.295a.592.592 0 0 1 .015-.064l.137-.435-.06-.027-.081-.086c-.088-.173-.251-.278-.319-.323-.015-.009-.03-.017-.043-.028a6.68 6.68 0 0 1-.714-.642c-.976-.995-1.603-2.022-1.49-3.797.065-.989.345-1.81.914-2.66.424-.631 1.048-1.179 1.908-1.673.953-.546 2.061-.967 3.135-1.376.77-.293 1.566-.594 2.306-.943a10.794 10.794 0 0 0 2.504-1.6c.892-.773 1.399-1.622 1.546-2.598.005-.032.009-.062.011-.094.041-.04.096-.099.148-.173.132-.2.235-.469.22-.745.265-.222.576-.535.589-1.132.002-.092-.009-.182-.018-.26l-.006-.054.026-.024c.047-.045.098-.09.143-.143a2.42 2.42 0 0 0 .319-.473c.16-.323.18-.7.156-1.023.473-.323.747-.87.762-1.512.973-.193 1.756-.51 2.379-.963a3.71 3.71 0 0 0 .916-1c.064-.006.13-.012.192-.023h.015c.561 0 .901-.297 1.136-.56h.002l.017-.022.011-.013.024-.025.015-.017.004-.007c.045-.053.083-.105.118-.154a1.77 1.77 0 0 0 .333-1.18 3.09 3.09 0 0 0-.085-.795v-.008l-.005-.009-.173-.586v-.015l.265-.655c.163-.344.366-.695.636-1.102.244-.368.858-1.343 1.033-1.902l1.258-2.695-1.433.183a4.423 4.423 0 0 0-1.217-2.274c-.773-.772-1.667-1.155-2.814-1.209l-.056-.002c-.066 0-.141.007-.218.01a.627.627 0 0 1-.066.005l-.017-.015c-.383-.338-.907-.802-1.857-.802-.555.002-1.038.148-1.417.428-.74.252-1.463.646-2.022.993-.032-.28-.09-.74-.122-.88l-.07-.304-.034-.14-.037-.153c-.062-.265-.124-.539-.222-.785-.169-.421-.385-.8-.574-1.134-.04-.073-.081-.143-.12-.212.015-.132.026-.288.026-.423 0-.574-.173-.976-.312-1.301l-.075-.173a28.003 28.003 0 0 0-.351-.794c-.019-.039-.039-.075-.058-.111-.015-.03-.032-.06-.047-.092-.026-.06-.049-.125-.075-.19-.205-.531-.545-1.417-1.493-1.417h-.019a1.185 1.185 0 0 0-.856.374c-.381-.323-.815-.661-1.372-.843-.28-.1-.59-.12-.969-.12Z"/>
    <path fill="#FFF6EF" d="M127.214 20.604c-.813-2.924-3.703-2.499-3.703-2.499-.259-.596-1.787-.796-1.787-.796-1.497.069-3.29 1.288-3.924 1.753a4.105 4.105 0 0 0-.049-.721c-.239-1.472-1.213-3.659-1.213-3.659s-.058-1.183-.237-1.566c-.18-.383-.918-2.114-.918-2.114s-.785-.51-1.091.04c-.306.55-.863-.337-.863-.337s-1.521-1.194-3.164-.497c0 0-.792.475-.89 1.233-.101.757-.971 1.889-.971 1.889s-.478.899 0 1.474c.477.576.77 1.26.77 1.26s-.353.411-.661.46c-.308.05-1.38.347-1.361.527.019.18.154.836 1.369.776l1.216-.06.04.428-.008.905-.032.497s.261.49-1.027.23c-1.288-.258-2.433.287-2.433.287l.073.043a15.64 15.64 0 0 1-.505.052c-.454.027-1.169.483-1.169.483l-.487.71c-3.903 1.77-3.347 3.918-3.347 3.918l.326 2.015 1.722 2.756c0 2.812.552 2.3.552 2.3l1.754.285 1.171.34 1.885-.028.032.398.389.766-.195.37.099.313.552.483v1.05l-.195.512c-3.248 1.363-6.951 4.884-6.951 4.884-2.112 2.867.098 7.384.098 7.384l2.21 3.066c.845.88 4.461 2.172 4.461 2.172l.107-.37c-1.624-1.308-3.299-2.996-2.651-6.289a2.37 2.37 0 0 1 .024-.115c.73-3.214 5.141-4.684 5.141-4.684 3.443-.879 6.464-3.635 6.464-3.635l.488-1.932.781-.851v-.738l.682-.824.131-.993.357-.426.162-1.078.422-.426c2.144-.425 3.314-2.015 3.314-2.015 2.437.169 1.819-2.159 1.819-2.159l-.227-.766.747-1.846c1.187-2.534.701-4.635.701-4.635Z"/>
    <path fill="#EE9B31" d="M110.937 33.425s-1.273.423-1.661.509c-.387.085-.922.413-.75.776.169.364.896.813.727 1.188-.169.376.424.995 1.468 1.296 1.042.304 2.229.777 4.957.57 2.728-.206 2.916-.437 3.325-1.079.408-.642-.004-.762.445-1.296.449-.535.073-.74.387-1.226.315-.486.668-.85.606-1.188 0 0-.533.255-1.237.533-.704.278-2.422.8-4.72.595-2.298-.206-3.547-.678-3.547-.678Z"/>
    <path fill="#502A73" d="M118.389 32.034c-.755.036-2.91-.203-3.689-.17-.053 0-.055.082 0 .086 1.406.095 4.23.497 5.651.332-.835.971-2.195 1.57-3.971 1.654-1.842.088-3.631-.137-5.08-.535.078-.062.174-.103.268-.148.139-.158.231-.363.347-.545 2.383-.608 4.726-1.256 7.338-1.635-.699-.013-1.352.103-1.99.197-1.929.289-3.725.65-5.554 1.04 0 .233-.124.45-.327.56-.471.261-.959.505-1.442.754a.757.757 0 0 1-.792-.065h-.004c-.131-.096-.274-.18-.357-.297 2.205-.537 4.861-2.161 6.536-3.25.032-.021.18-.113.098-.069-.351.193-1.808.835-2.18 1.023-1.098.552-2.242 1.108-3.485 1.496-.837.26-1.853.475-2.893.406-1.029-.068-1.829-.349-2.544-.772-.019.015.019.04.03.05.066.061.126.11.188.168.086.077.191.141.249.227-.655-.086-1.303-.103-1.616-.524-.237-.321-.038-.931-.147-1.397-.101.718-.086 1.512.286 1.852.317.29.764.358 1.318.358.171 0 .383-.054.535-.03.084.013.193.105.287.158.302.167.627.302.961.396.481.137 1.114.113 1.653.05.107.2.242.371.377.545-.079.098-.133.16-.178.257-.259.554.189 1.07.604 1.247-.077.12-.186.21-.219.366-.044.222.105.34.199.494-.725.725-1.668 1.24-2.663 1.684-1.99.883-3.862 1.945-4.861 3.832-.492.926-.824 2.13-.704 3.605.214 2.608 1.245 4.576 2.625 6.07a10.73 10.73 0 0 0 2.407 1.94c.907.544 1.96.965 3.218 1.13.04-.084.047-.203.079-.297-.86-.394-1.496-.991-2.05-1.693a7.793 7.793 0 0 1-1.318-2.437c-.312-.967-.438-2.24-.199-3.297a5.845 5.845 0 0 1 1.269-2.486c1.147-1.346 2.715-2.21 4.536-2.961 1.697-.7 3.246-.077 2.366.308-.907.396-1.857.719-2.762 1.1-1.801.755-3.387 1.767-4.268 3.455-.435.83-.706 1.95-.535 3.229a6.722 6.722 0 0 0 1.902 3.891c.272.272.584.574.92.773.092.055.115.081.148.04.079-.102-.095-.169-.197-.248a7.175 7.175 0 0 1-.773-.693c-.982-1.001-1.763-2.159-1.634-4.19.079-1.231.475-2.128.999-2.911.522-.781 1.252-1.359 2.08-1.831 1.679-.963 3.727-1.513 5.477-2.337.909-.428 1.692-.924 2.385-1.525.634-.548 1.224-1.284 1.376-2.288.011-.072.004-.147.03-.218.036-.105.139-.154.208-.256.113-.17.196-.44.068-.645.295-.27.642-.436.653-.96.004-.144-.052-.34-.02-.475.024-.105.208-.233.287-.328a1.97 1.97 0 0 0 .248-.365c.148-.298.124-.71.069-1.08.575-.215.905-.848.761-1.655 1.04-.154 1.932-.449 2.623-.952.336-.244.619-.586.841-.95.227-.37.405-.815.467-1.307-1.053 2.101-3.516 2.91-6.515 3.051v-.002ZM102.267 47.68c-.269-.918-.509-2.013-.406-3.138.201-2.215 1.187-3.636 2.565-4.654.691-.511 2.602-.317 1.269.505-1.416.87-2.63 1.99-2.921 3.971-.162 1.098-.023 2.189.169 3.139.197.977.503 1.816.863 2.584.734 1.573 1.816 2.786 3.248 3.635-2.403-1.194-3.961-3.237-4.787-6.042Zm6.537-6.664c-1.556.78-2.923 1.808-3.734 3.337-.423.8-.543 1.862-.486 3.04.054 1.062.287 2.125.595 2.942.649 1.72 1.699 3.03 3.19 3.882-.211-.069-.406-.182-.594-.287-2.082-1.158-3.486-3.053-4.031-5.773a9.372 9.372 0 0 1-.08-3.267c.161-.995.587-1.786 1.109-2.456.526-.672 1.17-1.215 1.891-1.673 1.474-.937 3.509-.434 2.14.255Zm11.356-7.624c-.081.201-.304.368-.475.495-.631.468-1.395.802-2.298 1.001-1.065.235-2.297.308-3.551.338-.056 0-.062.084-.007.092.632.1 1.288.182 1.975.184 1.096 0 1.977-.242 2.833-.494.289-.086.578-.208.901-.208.002.233-.189.394-.347.516-.481.37-1.136.605-1.801.783a18.92 18.92 0 0 1-2.36.445c-.062.009-.058.098.004.1.61.026 1.234.03 1.821-.01.766-.054 1.423-.276 1.962-.496.229.644-.447.84-.922.99-.403.128-.79.214-1.209.267-.895.114-1.932.082-2.814.02-.896-.062-1.803-.188-2.574-.385-.584-.15-1.125-.343-1.534-.683-.132-.111-.306-.224-.308-.426.176-.045.351.039.516.09.486.15.986.293 1.534.377.586.09 1.234.062 1.889.043.073 0 .081-.107.009-.12-.803-.146-1.644-.276-2.416-.458-.712-.17-1.344-.404-1.842-.813-.158-.13-.34-.28-.377-.505.343-.015.617.165.901.276.738.293 1.825.524 2.865.374.047-.006.051-.075.004-.083-1.187-.259-2.437-.454-3.393-.944.308-.126.68-.233 1.05-.346.116-.037.249-.12.347-.12.066 0 .171.062.268.09.646.177 1.384.287 2.098.387.841.118 1.748.19 2.604.227 1.984.083 3.336-.41 4.605-1.06.012-.006.014-.02.038-.018.058.002.009.064.004.074Z"/>
    <path fill="#502A73" d="M125.569 29.436c-.265.232-.704.362-.961.405-.057.135-.13.252-.177.396.488.068 1.172-.3 1.397-.559.19-.22.325-.477.347-.791.032-.486-.159-.867-.219-1.308.06.732.035 1.494-.387 1.857Zm-9.867-14.989c.119-.007.246.026.357 0 .111-.118.092-.357.026-.514-.06-.14-.15-.363-.238-.509-.098-.16-.278-.569-.295-.361.068.13-.002.194.077.374.07.16.186.379.156.558-.015.097.034.326-.024.383-.023.026-.081.052-.059.069Z"/>
    <path fill="#502A73" d="M126.598 19.16c-.592-.592-1.343-1.008-2.475-1.059-.146-.006-.385.039-.505.01-.047-.01-.126-.1-.169-.138-.4-.355-.792-.676-1.526-.674-.539.002-.954.173-1.228.426-.09.08-.156.21-.278.278-.086.047-.195.062-.287.098-.648.248-1.194.627-1.713.99-.589.412-1.104.953-1.644 1.456-.979.915-2.402 1.966-3.994 2.304-.03.006-.024.05.006.047 2.296-.148 4.031-1.305 5.086-2.677.668-.868 1.545-1.489 2.475-2.098-.973 1.502-1.281 3.669-1.574 5.853l-.049.407s.228.096.93-.469c.58-.736 1.22-1.459 1.907-2.067.015-.012-.003-.036-.02-.025-.5.308-1.022.599-1.502.913-.179.118-.344.257-.535.347.202-1.371.403-2.811.95-3.873.255-.494.612-1.029 1.119-1.288.582-.297 1.449-.158 1.843.2-.846.079-1.612.235-2.268.502a.51.51 0 0 0-.306.563v.004a8.393 8.393 0 0 1 1.684-.663c.607-.173 1.339-.302 2.09-.188 1.376.21 2.017 1.084 2.366 2.336a6.65 6.65 0 0 1 .238 2.11c-.052 1.104-.379 1.98-.833 2.693-.152.238-.331.458-.466.713-.257.488-.529 1.204-.218 1.861.177-1.18.644-2.035 1.189-2.852.266-.4.462-.888.614-1.405.154-.531.287-1.1.268-1.764-.032-1.311-.52-2.214-1.175-2.87Zm-11.943-6.236c-.013.226.028.41.079.652.033.156.086.475.182.558.094.082.328.054.392.148.07.103.019.293.008.409.116-.05.251-.283.157-.48-.028-.06-.105-.096-.174-.113-.072-.02-.179.013-.269-.026-.064-.027-.116-.162-.148-.252-.222-.601.432-1.936.122-1.988-.098.364-.325.657-.349 1.091Z"/>
    <path fill="#502A73" d="M121.921 27.139c.039-.358.203-.989-.297-.953.06-.34.135-.573-.116-.659-.197-.068-.524-.019-.802-.03-.293-.01-.58-.044-.815-.053 0 0-1.128-.126-1.26.081-.009.02-.007.037-.003.041-.652-.04-.932.291-1.277.603-.135.124-.289.257-.436.388-.144.124-.306.295-.467.357-.141.055-.376.04-.573.05a13.28 13.28 0 0 1-1.714-.03c-.299-.029-.359-.033-.633-.07-1.429-.147-2.788-.36-4.367-.357-.069-2.813-.98-4.835-2.535-6.13a6.488 6.488 0 0 1 2.535-.297c-.244.088-.518.364-.327.683.181.304.607.468.99.605.832.296 2.769.486 4.348-.227a5.26 5.26 0 0 0 .755-.368c.368-.22.783-.547.993-.958.216-.422.224-1.096.165-1.716a9.486 9.486 0 0 0-.21-1.254c-.017-.072-.058-.336-.122-.374-.017-.01-.051.03-.071.017.071.494.184 1.093.156 1.682-.025.58-.083 1.17-.28 1.585-.18.383-.558.668-.905.899-.229.15-.417.254-.958.44-1.359.467-2.172.323-2.795.24-.65-.088-1.281-.175-1.594-.55-.151-.18-.132-.4.039-.524.163-.116.353-.188.552-.197.434-.021.967.09 1.339.092-.158-.214-.421-.443-.584-.652.338.156.723.314 1.143.374.492.07.907-.01 1.236-.235.572-.388.997-1.126.916-2.127-.038-.458-.216-.882-.261-1.325.387.122.618.398.899.627.008.005.021.011.008 0-.214-.265-.4-.603-.723-.74-.184-.077-.426-.02-.618.043-.308.1-.505.237-.749.383-.124.075-.268.167-.4.173-.131.007-.223-.053-.315-.079-.017.028.037.077.071.105a.373.373 0 0 0 .297.08c.251-.029.497-.191.741-.305.252-.12.496-.25.766-.289-.092.336-.244.71-.437 1.03-.158.265-.424.64-.689.774-.308.158-.783.203-1.228.235-.133.009-.357.052-.454-.008-.1-.062-.038-.231-.042-.366-.005-.096-.037-.165-.043-.244.218-.137.46-.267.689-.41.06-.037.199-.086.201-.166.002-.109-.197-.15-.295-.181-.127-.041-.257-.09-.366-.097.124.082.267.146.34.279-.064.1-.25.094-.357.139-.246.104-.462.252-.732.366-.24.1-.588.162-.916.192-.481.043-1.11.034-1.5-.113-.119-.045-.314-.148-.303-.253.008-.096.246-.171.357-.21.158-.05.304-.083.428-.139.177-.08.387-.24.601-.365l.306-.184c.079-.047.28-.131.295-.19.015-.065-.053-.19-.079-.27-.139-.46-.432-.743-.697-1.047-.097-.11-.287-.263-.313-.383-.043-.192.045-.455.097-.627.062-.2.13-.37.218-.513.09-.152.214-.268.314-.409.204-.289.325-.635.462-.992.067-.176.161-.345.219-.514.126-.372.291-.644.609-.845.317-.199.726-.295 1.143-.315.432-.019.843.12 1.177.279.569.271 1.046.671 1.446 1.097.053.058.096.137.175.176.105-.201.27-.557.463-.724.158-.139.338-.092.462.06.175.214.286.544.4.811.124.287.244.584.374.845.238.473.559.931.454 1.64-.011.074-.06.181-.052.252.005.043.075.15.114.218.043.075.09.152.122.21.244.436.449.887.627 1.369.246.668.522 1.898.637 2.627.062-.242.146-.492.122-.757-.01-.135-.1-.873-.132-1.014l-.105-.445c-.071-.293-.135-.612-.236-.863-.214-.534-.511-.994-.748-1.437.021-.127.042-.351.042-.522 0-.452-.126-.762-.269-1.098-.133-.31-.274-.646-.417-.95-.037-.075-.08-.145-.114-.227-.214-.515-.417-1.298-1.106-1.29-.428.007-.593.336-.792.593-.483-.4-.956-.875-1.602-1.09-.223-.074-.494-.087-.811-.087-1.158 0-1.996.36-2.345 1.254-.171.443-.302.892-.505 1.29-.205.4-.458.76-.635 1.168-.103.231-.197.454-.193.706.007.266.131.45.27.627.259.33.607.58.774 1.03-.396.271-.871.53-1.378.731-.235.094-.513.192-.575.428-.069.26.13.468.269.558.234.15.621.244 1.021.287.413.045.864.066 1.219-.009.178.516.135 1.173.071 1.8-.1.025-.098.017-.207.036-.056-.017-.11-.04-.163-.062a2.017 2.017 0 0 0-.396-.12c-.28-.043-.597-.092-.911-.09-.186.003-.388.035-.584.06-.604.075-1.136.174-1.624.328-.644.203-1.408.378-1.417 1.19-.941.416-1.746.958-2.407 1.683-.627.689-1.217 1.63-1.217 2.882 0 1.324.522 2.247 1.029 3.06.52.832 1.423 1.363 1.583 2.516.259-.242.037-.751-.087-1.03a8.473 8.473 0 0 0-.347-.693c-.516-.918-1.059-1.66-1.476-2.683-.206-.505-.377-1.06-.377-1.703 0-1.305.71-2.092 1.496-2.663.659-.477 1.422-.811 2.34-1.01.415-.09.745-.405.848-.815v-.007c-.445.088-.831.236-1.216.387.259-.24.439-.472.813-.545.424-.082.724.15.961.357 1.455 1.269 2.02 3.432 2.604 5.535l-.633.047a3.218 3.218 0 0 0-.137-1.348l-.003-.008c-.181-.55-.554-1.16-1.298-1.641h-.002a.463.463 0 0 0-.55.036 3.418 3.418 0 0 0-.118.103s.148.049.218.077c.364.16 1.098.63 1.571 1.898.098.288.175.592.242.905-1.316.207-2.448.674-3.09 1.544-.045.06-.105.13-.098.178h.004a.826.826 0 0 0 .77-.242 3.881 3.881 0 0 1 1.453-.988c.755-.29 1.705-.321 2.704-.298 1.429.035 2.854.2 4.17.358.46.055.918.13 1.387.128.843-.002 1.26-.282 1.763-.633.224-.159.451-.345.674-.525.203-.166.449-.41.693-.515.143-.062.363-.02.565-.009.41.017.718.045 1.099.05.186.002.572-.08.715-.039.231.068.297.364.197.635-.212.03-.604.009-.794.056-.056.013-.077.064-.118.098-.042.035-.115.047-.119.11.177-.039.361-.08.573-.11.188-.027.655-.124.783-.023.18.145.032.674 0 .892-.263.037-.766-.053-.982.002-.064.017-.094.075-.139.11-.054.038-.135.04-.129.108.197-.06.454-.085.704-.12.231-.03.76-.076.92.076a1.102 1.102 0 0 1-.147.425c-.043.069-.178.293-.257.317-.083.023-.432-.045-.526-.053-.101-.011-.223-.043-.308-.03-.122.019-.227.156-.306.218.205-.024.402-.069.644-.08.177-.008.665.011.701.155.037.132-.1.284-.145.35a.679.679 0 0 1-.291.257 3.62 3.62 0 0 1-.533.15c-.135.02-.295.013-.415.05-.077.023-.162.115-.257.168-.261.146-.609.349-.93.377-.27.021-.503-.064-.732-.129-.167-.047-.531-.132-.603-.267-.026-.045-.003-.105-.039-.14-.19.06-.438.022-.644.09-.064.02-.107.07-.169.09-.28.095-.588.153-.881.227-1.472.383-2.953.803-4.307 1.288-.539.193-1.076.383-1.515.704 2.026-.793 4.418-1.305 6.714-1.861.162-.039.329-.111.464-.11.167 0 .319.127.456.178.143.054.297.099.445.129.928.192 1.776-.1 2.308-.456.112-.075.212-.175.336-.248.099-.058.193-.088.289-.111.285-.067.546-.225.704-.469a1.01 1.01 0 0 0 .128-.272.182.182 0 0 0-.177-.229h-.004c.115-.222.25-.353.295-.6.049-.354-.332-.41-.332-.41Zm-11.823-9.17c.218-.09.4-.217.61-.315.04.285-.092.458-.165.652.424.174 1.046.071 1.489-.025.295-.064.584-.128.785-.278.403-.302.644-.796.82-1.333.006-.002.008.004.008.008.193.644.221 1.472-.036 2.014-.25.53-.702.945-1.376.984-.535.03-.933-.11-1.335-.235-.085-.531.103-.482.803-.48.128-.244-.766-.141-.987-.139.037.195.109.417.15.61-.186-.075-.377-.145-.55-.235.146.252.364.507.524.774a8.215 8.215 0 0 0-.941-.051c.156-.576.214-1.25.201-1.952Z"/>
    <path fill="#502A73" d="M113.183 18.595c.223-.224.345-.52.454-.87.004 0 .011-.007 0-.009-.197.261-.432.511-.792.689a2.004 2.004 0 0 1-.575.165c-.174.028-.505.102-.689.043-.077-.026-.141-.154-.193-.148.045.165.09.327.131.496.714.005 1.313-.013 1.664-.366Zm-3.896 2.491c.06.205.37.61.685 1.005.344.435.787.78 1.292 1.004l.015.006c.518.231 1.102.42 1.823.396 1.036-.032 2.009-.379 2.651-.813.154-.105.732-.5.509-.464-1.074.565-2.811.828-4.298.464-1.179-.287-1.224-.439-2.031-1.091-.117-.092-.699-.674-.646-.507Zm4.889-7.24c-.053-.617-.002-1.731.246-2.208-.24-.17-.667 1.487-.246 2.208Zm5.182 12.524c.113.107.297.208.357.358s.06.353.088.524c.086.516.18.777.135 1.48-.002.018.023.024.03.007.212-.586.167-1.031.171-1.575.002-.182.036-.408-.03-.524-.039-.07-.15-.107-.257-.169-.271-.154-.629-.377-.851-.456.13.107.231.236.357.355Zm-9.521-13.047s-.002-.01-.009-.008c-.087.096-.226.368-.357.409-.195.062-.398-.039-.567.042-.169.084-.184.39-.261.548.039.013.049-.045.071-.068.068-.082.184-.223.286-.253.152-.045.377.024.523.009.314-.03.37-.306.314-.679Zm3.494.122c-.139-.1-.272-.196-.417-.278-.176-.098-.394-.211-.664-.192-.346.028-.736.177-1.071.26-.131.033-.279.089-.375.071-.088-.017-.222-.16-.278-.218-.019-.019-.043-.077-.079-.051-.052.145-.096.376-.017.513.109.189.421.114.654.06.148-.032.3-.066.428-.105.266-.079.542-.205.82-.235.348-.038.678.13.992.182.007.002.02 0 .007-.007Zm-.3 1.045a2.301 2.301 0 0 0-1.121-.34c-.282-.013-.528.044-.766.1l-.134.03-.033.006.03.013c.189.086.415.054.634.024.113-.015.229-.032.338-.032.19 0 .368.032.53.096-.445-.026-1.001-.02-1.277.216l-.015.013.017.006s.054-.002.062-.006l.007-.004c-.041.17.002.327.042.477.013.049.026.094.035.139-.017.032-.047.049-.077.068l-.03.02-.032.02h.038c.238-.016.473-.036.7-.057.304-.028.616-.053.939-.066h.062l-.058-.022a.995.995 0 0 0-.171-.034 1.005 1.005 0 0 1-.143-.028c.19-.098.374-.252.357-.605.028 0 .058 0 .069-.024l.004-.008h-.007v-.002Zm-.761.079c.023-.005.068-.009.096.013.015.012.021.03.021.055 0 .05-.021.075-.062.08-.057.004-.134-.046-.141-.086-.004-.039.051-.056.086-.062Zm.177.563c-.175.047-.434.04-.682.036-.073-.002-.144-.002-.21-.002h-.023c-.116-.105-.159-.383-.092-.58a7.74 7.74 0 0 1 .618-.1l-.03.027c-.039.034-.084.073-.092.13a.225.225 0 0 0 .092.234.45.45 0 0 0 .445.026.24.24 0 0 0 .139-.232c-.002-.072-.045-.12-.079-.156l-.013-.015c.081 0 .16.007.246.018.036.327-.079.551-.319.614Zm-2.278.348c-.047-.092-.056-.224-.065-.353-.006-.096-.012-.195-.036-.278h.007c.012.002.025.002.034-.004a.02.02 0 0 0 .006-.015v-.01l-.047-.01a2.044 2.044 0 0 0-.432-.055l.004-.002c.118-.06.261-.133.238-.308l-.005-.037-.015.035a.356.356 0 0 1-.128.152c-.06.046-.148.072-.24.1-.184.056-.374.113-.357.345v.006h.007c.015.01.029.002.036 0h.002c.073.199.188.362.297.52l.039.053h.028c.263 0 .46-.062.618-.122l.011-.004v-.01l-.002-.003Zm-.608.039a1.844 1.844 0 0 1-.255-.522h.003c.188-.056.38-.114.614-.127.051.101.066.24.081.375.006.066.015.135.026.199a1.55 1.55 0 0 0-.082.023.895.895 0 0 1-.387.052Z"/>
    <path fill="#502A73" d="M109.931 15.303a.188.188 0 0 0 .103-.176.168.168 0 0 0-.062-.124.322.322 0 0 0-.24-.051c-.158.023-.201.103-.209.167a.172.172 0 0 0 .077.175.307.307 0 0 0 .171.047.337.337 0 0 0 .16-.038Zm-.006-.227a.044.044 0 0 1-.024.045.098.098 0 0 1-.094.004.045.045 0 0 1-.026-.043c0-.027 0-.043.069-.049h.013c.019 0 .036.004.049.015a.059.059 0 0 1 .013.028Zm6.48-.424s.212.255.127.355c-.086.099-.285.454-.848.48-.201.008-.34-.105-.335-.187 0 0 .819.189 1.056-.648Zm-7.002.982s.265-.036.494-.081c.229-.045.208-.06.417-.086 0 0-.141-.04-.209-.019a6.81 6.81 0 0 0-.227.075l-.334.04s-.178.048-.141.071Z"/>
    <path fill="#EE9B31" fill-rule="evenodd" d="m128.122 23.238.898-1.966-9.653 1.549-9.346 1.47.805 1.54 1.878-.256.028.015.088.31 4.976-.777c.148.062.31.137.477.235.118.069.358.17.358.17.047-.082.447-.131.997-.099l.607.039s.43-.597.689-.835l5.505-.858-.06-.241.024-.024 1.729-.272Zm-14.624 2.217-.317-.206 12.692-1.92-.231.292-12.144 1.834Z" clip-rule="evenodd"/>
  </g>
  <path fill="#512A74" d="M114.384 7.506c9.142 0 16.555 7.412 16.555 16.556 0 9.144-7.411 16.556-16.555 16.556-9.145 0-16.556-7.412-16.556-16.556 0-9.145 7.411-16.556 16.556-16.556Zm0-1.346c-9.87 0-17.902 8.03-17.902 17.902 0 9.872 8.03 17.901 17.902 17.901 9.871 0 17.901-8.03 17.901-17.901 0-9.872-8.032-17.902-17.901-17.902Z"/>
  <path fill="#512A74" d="M121.988 35.724v.249h-.358v.941h-.306v-.941h-.357v-.248h1.021Zm1.281 1.192-.034-.6c0-.114 0-.25-.004-.408h-.018c-.029.135-.07.294-.1.416l-.167.57h-.297l-.152-.579c-.022-.105-.052-.27-.084-.407h-.017c0 .14-.004.279-.008.407l-.035.601h-.288l.079-1.191h.466l.135.423c.026.088.043.18.075.345h.008c.026-.127.052-.24.079-.345l.144-.424h.441l.074 1.192h-.297Z"/>
  <path fill="#502875" d="M194.792 19.83c0 .65-.52 1.162-1.183 1.162-.664 0-1.19-.514-1.19-1.162 0-.648.533-1.149 1.19-1.149.656 0 1.183.511 1.183 1.149Zm-2.044.006c0 .492.371.888.863.888s.853-.396.853-.888-.361-.888-.853-.888c-.495 0-.863.396-.863.888Zm.698.567h-.302v-1.1c.09-.012.253-.034.458-.034.233 0 .336.035.411.082.075.047.124.13.124.24 0 .115-.103.211-.246.252v.013c.115.04.178.13.212.28.034.165.062.224.081.267h-.336c-.034-.04-.055-.137-.081-.252-.022-.116-.081-.165-.206-.165h-.115v.417Zm.006-.629h.116c.13 0 .225-.047.225-.143 0-.096-.075-.15-.212-.15-.056 0-.097.007-.131.007v.286h.002Z"/>
  <path fill="#502A73" d="m1.844 54.228-1.03-6.033h1.218l.295 2.409c.082.689.135 1.378.206 2.111h.025c.082-.742.217-1.397.34-2.122l.43-2.398h.949l.402 2.38c.107.681.214 1.353.286 2.14h.018c.08-.787.151-1.43.233-2.13l.295-2.39h1.147l-1.066 6.033H4.384l-.358-1.979a32.147 32.147 0 0 1-.27-1.979H3.74c-.107.725-.206 1.397-.332 1.988l-.402 1.97H1.844Zm6.59-6.036v6.034H7.26v-6.034h1.173Zm1.012 6.036v-6.034h1.074l.93 2.365c.18.466.475 1.245.644 1.763h.018c-.037-.636-.116-1.684-.116-2.793v-1.332h1.03v6.033H11.95l-.922-2.291c-.197-.51-.475-1.271-.61-1.817h-.017c.028.61.073 1.54.073 2.75v1.36h-1.03v-.004Zm4.582-5.946a5.51 5.51 0 0 1 1.19-.115c.762 0 1.29.18 1.673.537.52.466.788 1.262.788 2.434 0 1.173-.313 2.087-.841 2.55-.402.394-1.004.583-1.845.583-.367 0-.733-.037-.967-.062v-5.927h.002Zm1.173 5.013a.8.8 0 0 0 .205.017c.565 0 1.057-.554 1.057-2.22 0-1.235-.323-1.988-1.029-1.988-.081 0-.16 0-.233.028v4.163Zm6.75-2.193c0 2.274-.806 3.197-1.951 3.197-1.37 0-1.906-1.451-1.906-3.107 0-1.656.652-3.07 1.987-3.07 1.46 0 1.87 1.602 1.87 2.98Zm-2.64.107c0 1.37.259 2.069.734 2.069s.68-.894.68-2.122c0-1.057-.16-2.014-.689-2.014-.466 0-.725.77-.725 2.067Zm3.975 3.019-1.029-6.034h1.218l.295 2.41c.081.688.135 1.377.205 2.111h.026c.081-.742.216-1.397.34-2.122l.43-2.399h.948l.402 2.382c.107.68.214 1.352.287 2.14h.017c.081-.788.152-1.432.233-2.132l.295-2.39h1.15l-1.066 6.034h-1.209l-.357-1.98a32.146 32.146 0 0 1-.27-1.978h-.017c-.107.725-.205 1.397-.332 1.987l-.402 1.971h-1.164Zm9.694-.09c-.168.081-.5.143-.913.143-1.54 0-2.274-1.27-2.274-2.98 0-2.274 1.262-3.16 2.434-3.16.413 0 .698.081.816.16l-.197.985a1.19 1.19 0 0 0-.546-.116c-.663 0-1.262.573-1.262 2.069 0 1.495.546 2.005 1.262 2.005.197 0 .422-.045.565-.09l.116.984Zm.61-5.946h1.173v5.041h1.549v.993H33.59v-6.034Zm5.918 3.385H38.13v1.63h1.558v1.021h-2.73v-6.034h2.623v1.021h-1.45v1.389h1.377v.973Zm1.898 1.271-.27 1.378H40l1.308-6.034h1.405l1.173 6.034H42.75l-.26-1.378h-1.084Zm.976-.914-.197-1.262a47.613 47.613 0 0 1-.197-1.37h-.028c-.062.403-.152 1.03-.214 1.379l-.224 1.253h.86Zm2.131 2.294v-6.034h1.074l.93 2.365c.18.466.475 1.245.644 1.763h.018c-.037-.636-.116-1.684-.116-2.793v-1.332h1.03v6.033h-1.075l-.922-2.291c-.197-.51-.475-1.271-.61-1.817h-.017c.028.61.073 1.54.073 2.75v1.36h-1.03v-.004Zm5.757-6.036v6.034h-1.173v-6.034h1.173Zm1.01 6.036v-6.034h1.074l.93 2.365c.18.466.476 1.245.645 1.763h.017c-.036-.636-.116-1.684-.116-2.793v-1.332h1.03v6.033h-1.075l-.922-2.291c-.197-.51-.475-1.271-.61-1.817h-.017c.028.61.073 1.54.073 2.75v1.36H51.28v-.004Zm7.933-.163c-.258.107-.815.214-1.253.214-.69 0-1.21-.197-1.611-.599-.52-.5-.796-1.397-.78-2.435.029-2.193 1.28-3.106 2.562-3.106.456 0 .796.09.984.18l-.205 1.011c-.17-.09-.394-.134-.69-.134-.795 0-1.43.545-1.43 2.122 0 1.45.564 1.97 1.11 1.97a.674.674 0 0 0 .233-.027V51.8h-.537v-.958h1.62v3.222h-.003Z"/>
  <path fill="#EE9B31" d="M62.446 51.263c0-.74.5-1.21 1.156-1.21.654 0 1.142.448 1.142 1.199 0 .75-.48 1.187-1.155 1.187-.642 0-1.143-.468-1.143-1.176Z"/>
  <path fill="#502A73" d="M68.14 48.282c.331-.07.778-.115 1.225-.115.698 0 1.246.098 1.64.466.357.312.52.815.52 1.324 0 .653-.198 1.11-.512 1.451-.377.394-.984.573-1.468.573h-.233v2.247H68.14v-5.946Zm1.172 2.74a.634.634 0 0 0 .188.018c.59 0 .86-.422.86-.984 0-.529-.216-.94-.761-.94a.858.858 0 0 0-.287.045v1.862Zm2.882-2.74c.368-.07.832-.115 1.28-.115.644 0 1.217.09 1.61.447.368.331.475.734.475 1.254 0 .644-.312 1.225-.93 1.512v.017c.41.16.618.546.734 1.19.115.672.278 1.414.385 1.639h-1.226c-.073-.171-.206-.779-.295-1.442-.107-.751-.296-.967-.69-.967h-.17v2.409h-1.173v-5.944Zm1.172 2.632h.206c.511 0 .806-.411.806-.94 0-.528-.205-.877-.733-.894a.812.812 0 0 0-.278.037v1.797Zm5.553.663H77.54v1.63h1.557v1.021h-2.73v-6.034h2.623v1.021h-1.45v1.389h1.378v.973Zm.806 1.451c.242.134.653.233.993.233.554 0 .824-.287.824-.68 0-.44-.27-.653-.78-.985-.823-.5-1.135-1.136-1.135-1.683 0-.968.644-1.772 1.906-1.772.394 0 .77.107.95.214l-.188 1.012a1.441 1.441 0 0 0-.77-.206c-.501 0-.743.304-.743.627 0 .358.18.546.832.94.796.483 1.092 1.09 1.092 1.728 0 1.102-.816 1.827-1.997 1.827-.483 0-.958-.126-1.155-.241l.171-1.014Zm3.492 0c.242.134.653.233.993.233.554 0 .823-.287.823-.68 0-.44-.27-.653-.778-.985-.824-.5-1.136-1.136-1.136-1.683 0-.968.644-1.772 1.906-1.772.393 0 .77.107.95.214l-.188 1.012a1.44 1.44 0 0 0-.77-.206c-.501 0-.743.304-.743.627 0 .358.18.546.832.94.796.483 1.091 1.09 1.091 1.728 0 1.102-.815 1.827-1.996 1.827-.483 0-.958-.126-1.155-.241l.17-1.014Zm4.763-4.836v3.922c0 .886.27 1.155.573 1.155.34 0 .582-.241.582-1.155v-3.922h1.172v3.715c0 1.549-.582 2.39-1.746 2.39-1.262 0-1.754-.87-1.754-2.382V48.19h1.172v.002Zm3.303.09c.368-.07.832-.115 1.28-.115.643 0 1.217.09 1.61.447.368.331.475.734.475 1.254 0 .644-.312 1.225-.93 1.512v.017c.41.16.618.546.734 1.19.115.672.278 1.414.385 1.639H93.61c-.073-.171-.206-.779-.295-1.442-.107-.751-.296-.967-.69-.967h-.17v2.409h-1.173v-5.944Zm1.172 2.632h.206c.511 0 .806-.411.806-.94 0-.528-.205-.877-.733-.894a.812.812 0 0 0-.278.037v1.797Zm5.55.663h-1.377v1.63h1.557v1.021h-2.73v-6.034h2.623v1.021h-1.45v1.389h1.377v.973Zm2.857 2.651-1.03-6.034h1.218l.295 2.41c.082.688.135 1.377.206 2.111h.026c.081-.742.216-1.397.34-2.122l.43-2.399h.948l.402 2.382c.107.68.214 1.352.287 2.14h.017c.081-.788.152-1.432.233-2.132l.295-2.39h1.147l-1.066 6.034h-1.208l-.358-1.98a32.262 32.262 0 0 1-.269-1.978h-.017c-.107.725-.206 1.397-.332 1.987l-.402 1.971h-1.162Zm6.232-1.38-.269 1.378h-1.137l1.308-6.034h1.405l1.173 6.034h-1.136l-.259-1.378h-1.085Zm.976-.914-.197-1.262a49.814 49.814 0 0 1-.197-1.37h-.028c-.062.403-.152 1.03-.214 1.379l-.224 1.253h.86Zm1.996 1.094c.242.134.653.233.993.233.554 0 .823-.287.823-.68 0-.44-.269-.653-.778-.985-.824-.5-1.136-1.136-1.136-1.683 0-.968.644-1.772 1.906-1.772.394 0 .77.107.95.214l-.188 1.012a1.441 1.441 0 0 0-.771-.206c-.5 0-.742.304-.742.627 0 .358.18.546.832.94.796.483 1.091 1.09 1.091 1.728 0 1.102-.815 1.827-1.996 1.827-.483 0-.958-.126-1.155-.241l.171-1.014Zm4.799-4.836v2.418h1.226v-2.418h1.172v6.034h-1.172V51.7h-1.226v2.525h-1.172v-6.034h1.172Zm4.574 0v6.034h-1.172v-6.034h1.172Zm1.012 6.036v-6.034h1.074l.931 2.365c.18.466.475 1.245.644 1.763h.017c-.036-.636-.115-1.684-.115-2.793v-1.332h1.029v6.033h-1.074l-.922-2.291c-.197-.51-.475-1.271-.61-1.817h-.017c.027.61.072 1.54.072 2.75v1.36h-1.029v-.004Zm7.932-.163c-.259.107-.816.214-1.254.214-.689 0-1.209-.197-1.611-.599-.52-.5-.796-1.397-.779-2.435.028-2.193 1.279-3.106 2.561-3.106.456 0 .796.09.984.18l-.205 1.011c-.169-.09-.394-.134-.689-.134-.796 0-1.432.545-1.432 2.122 0 1.45.565 1.97 1.111 1.97a.672.672 0 0 0 .233-.027V51.8h-.537v-.958h1.62v3.222h-.002Z"/>
  <path fill="#EE9B31" d="M131.618 51.263c0-.74.5-1.21 1.155-1.21s1.142.448 1.142 1.199c0 .75-.479 1.187-1.155 1.187-.642 0-1.142-.468-1.142-1.176Z"/>
  <path fill="#502A73" d="M138.481 48.192v2.418h1.226v-2.418h1.173v6.034h-1.173V51.7h-1.226v2.525h-1.172v-6.034h1.172Zm6.967 2.91c0 2.274-.807 3.197-1.952 3.197-1.369 0-1.906-1.451-1.906-3.107 0-1.656.653-3.07 1.988-3.07 1.457 0 1.87 1.602 1.87 2.98Zm-2.643.107c0 1.37.259 2.069.734 2.069s.68-.894.68-2.122c0-1.057-.16-2.014-.689-2.014-.464 0-.725.77-.725 2.067Zm3.349-3.017h1.172v5.041h1.549v.993h-2.721v-6.034Zm4.54 0v6.034h-1.173v-6.034h1.173Zm1.012.09c.295-.07.725-.115 1.189-.115.762 0 1.29.18 1.673.537.52.466.788 1.262.788 2.434 0 1.173-.313 2.087-.841 2.55-.402.394-1.004.583-1.844.583-.368 0-.734-.037-.967-.062v-5.927h.002Zm1.172 5.013a.812.812 0 0 0 .206.017c.564 0 1.056-.554 1.056-2.22 0-1.235-.323-1.988-1.029-1.988-.081 0-.16 0-.233.028v4.163Zm4.001-.447-.27 1.378h-1.136l1.308-6.034h1.405l1.173 6.034h-1.136l-.259-1.378h-1.085Zm.976-.914-.197-1.262a49.814 49.814 0 0 1-.197-1.37h-.028c-.062.403-.152 1.03-.214 1.379l-.224 1.253h.86Zm2.561 2.294v-2.31l-1.324-3.726h1.253l.413 1.442c.107.386.223.833.313 1.28h.017c.073-.439.171-.877.278-1.307l.357-1.415h1.218l-1.353 3.68v2.354h-1.172v.002Zm4.279-6.036h1.172v5.041h1.549v.993h-2.721v-6.034Zm4.54 0v6.034h-1.173v-6.034h1.173Zm4.36 5.873c-.259.107-.815.214-1.253.214-.689 0-1.209-.197-1.612-.599-.519-.5-.795-1.397-.778-2.435.027-2.193 1.279-3.106 2.561-3.106.455 0 .796.09.984.18l-.206 1.011c-.169-.09-.393-.134-.688-.134-.796 0-1.432.545-1.432 2.122 0 1.45.565 1.97 1.111 1.97a.672.672 0 0 0 .233-.027V51.8h-.537v-.958h1.619v3.222h-.002Zm2.014-5.873v2.418h1.226v-2.418h1.172v6.034h-1.172V51.7h-1.226v2.525h-1.173v-6.034h1.173Zm4.056 1.085H178.6v-1.083h3.312v1.083h-1.074v4.951h-1.173v-4.95Zm4.001-1.085v6.034h-1.172v-6.034h1.172Zm1.012 6.036v-6.034h1.074l.931 2.365c.18.466.475 1.245.644 1.763h.017c-.036-.636-.116-1.684-.116-2.793v-1.332h1.03v6.033h-1.074l-.923-2.291c-.196-.51-.475-1.271-.609-1.817h-.018c.028.61.073 1.54.073 2.75v1.36h-1.029v-.004Zm7.931-.163c-.259.107-.815.214-1.253.214-.689 0-1.209-.197-1.612-.599-.519-.5-.795-1.397-.778-2.435.028-2.193 1.279-3.106 2.561-3.106.455 0 .796.09.984.18l-.205 1.011c-.169-.09-.394-.134-.689-.134-.796 0-1.432.545-1.432 2.122 0 1.45.565 1.97 1.111 1.97a.672.672 0 0 0 .233-.027V51.8h-.537v-.958h1.619v3.222h-.002ZM42.534 67.367c-.26.107-.816.214-1.254.214-.69 0-1.209-.197-1.611-.6-.52-.5-.796-1.396-.779-2.434.028-2.193 1.28-3.107 2.561-3.107.456 0 .796.09.984.18l-.205 1.012c-.17-.09-.394-.135-.69-.135-.795 0-1.43.546-1.43 2.123 0 1.45.564 1.97 1.11 1.97a.674.674 0 0 0 .233-.028v-1.459h-.537v-.958h1.62v3.222h-.002Zm1.979-5.873v3.922c0 .885.27 1.155.573 1.155.34 0 .582-.242.582-1.155v-3.922h1.172v3.714c0 1.55-.582 2.39-1.745 2.39-1.263 0-1.755-.869-1.755-2.381v-3.725h1.173v.002Zm3.957 1.082h-1.065v-1.082h3.312v1.082h-1.074v4.951h-1.172v-4.95Zm3.608 0h-1.065v-1.082h3.312v1.082H53.25v4.951h-1.173v-4.95Zm5.381 2.303h-1.378v1.63h1.558v1.02h-2.73v-6.033h2.623v1.02h-1.45v1.39h1.377v.973Zm.939-3.295c.368-.07.833-.116 1.28-.116.644 0 1.217.09 1.61.447.369.332.476.734.476 1.254 0 .644-.313 1.226-.93 1.513v.017c.41.16.617.545.733 1.19.115.671.278 1.414.385 1.638h-1.226c-.073-.17-.205-.778-.295-1.442-.107-.75-.295-.967-.69-.967h-.17v2.41h-1.173v-5.944Zm1.175 2.631h.205c.512 0 .807-.41.807-.939 0-.528-.206-.877-.734-.894a.812.812 0 0 0-.278.036v1.797Zm7.279 3.222c-.17.082-.501.144-.914.144-1.54 0-2.274-1.271-2.274-2.98 0-2.275 1.262-3.16 2.434-3.16.413 0 .698.08.816.16l-.197.984a1.19 1.19 0 0 0-.546-.116c-.663 0-1.262.574-1.262 2.07 0 1.495.545 2.004 1.262 2.004.197 0 .422-.045.565-.09l.116.984Zm.608-5.943h1.172v5.04h1.549v.993h-2.722v-6.033Zm5.917 3.385H72v1.63h1.558v1.02h-2.73v-6.033h2.623v1.02H72v1.39h1.377v.973Zm1.898 1.271-.27 1.377H73.87l1.308-6.033h1.405l1.173 6.033H76.62l-.26-1.377h-1.084Zm.976-.914-.197-1.262a47.664 47.664 0 0 1-.197-1.37h-.028c-.062.403-.152 1.03-.214 1.378l-.224 1.254h.86Zm2.131 2.291v-6.033h1.074l.93 2.364c.18.466.475 1.245.644 1.763h.017c-.036-.635-.115-1.684-.115-2.792v-1.333h1.029v6.033h-1.074l-.922-2.291c-.197-.51-.475-1.27-.61-1.816h-.017c.028.61.073 1.54.073 2.749v1.36h-1.03v-.004Zm5.758-6.033v6.033h-1.173v-6.033h1.172Zm1.011 6.033v-6.033h1.074l.93 2.364c.18.466.476 1.245.645 1.763h.017c-.036-.635-.116-1.684-.116-2.792v-1.333h1.03v6.033h-1.075l-.922-2.291c-.197-.51-.475-1.27-.61-1.816h-.017c.028.61.073 1.54.073 2.749v1.36h-1.029v-.004Zm7.931-.16c-.258.107-.815.214-1.253.214-.69 0-1.21-.197-1.611-.6-.52-.5-.796-1.396-.78-2.434.028-2.193 1.28-3.107 2.562-3.107.456 0 .796.09.984.18l-.206 1.012c-.169-.09-.393-.135-.688-.135-.796 0-1.432.546-1.432 2.123 0 1.45.565 1.97 1.11 1.97a.677.677 0 0 0 .234-.028v-1.459h-.537v-.958h1.62v3.222h-.003Z"/>
  <path fill="#EE9B31" d="M96.315 64.562c0-.74.5-1.209 1.156-1.209.654 0 1.142.447 1.142 1.198 0 .751-.48 1.188-1.155 1.188-.676 0-1.143-.469-1.143-1.177Z"/>
  <path fill="#502A73" d="m102.537 67.527-1.029-6.033h1.217l.295 2.409c.082.689.135 1.378.206 2.112h.026c.081-.743.216-1.397.34-2.123l.43-2.398h.948l.402 2.381c.107.68.214 1.352.287 2.14h.017c.081-.788.152-1.432.233-2.131l.295-2.39h1.147l-1.066 6.033h-1.208l-.358-1.979a32.262 32.262 0 0 1-.269-1.979h-.017c-.107.725-.206 1.397-.332 1.988l-.402 1.97h-1.162Zm6.59-6.033v6.033h-1.173v-6.033h1.173Zm1.01 6.033v-6.033h1.074l.93 2.364c.18.466.475 1.245.644 1.763h.017c-.036-.635-.115-1.684-.115-2.792v-1.333h1.029v6.033h-1.074l-.922-2.291c-.197-.51-.475-1.27-.61-1.816h-.017c.028.61.073 1.54.073 2.749v1.36h-1.029v-.004Zm4.585-5.943c.295-.07.725-.116 1.189-.116.762 0 1.29.18 1.673.537.52.467.788 1.262.788 2.435 0 1.172-.313 2.086-.841 2.55-.402.394-1.004.582-1.844.582a9 9 0 0 1-.968-.062v-5.926h.003Zm1.172 5.013a.8.8 0 0 0 .205.017c.565 0 1.057-.554 1.057-2.221 0-1.235-.323-1.988-1.029-1.988-.081 0-.16 0-.233.028v4.164Zm6.75-2.193c0 2.274-.806 3.196-1.951 3.196-1.369 0-1.906-1.45-1.906-3.107 0-1.656.652-3.07 1.987-3.07 1.457 0 1.87 1.603 1.87 2.98Zm-2.64.107c0 1.369.259 2.069.734 2.069s.68-.895.68-2.123c0-1.057-.16-2.013-.689-2.013-.466 0-.725.768-.725 2.067Zm3.975 3.016-1.029-6.033h1.218l.295 2.409c.081.689.135 1.378.205 2.112h.028c.081-.743.214-1.397.34-2.123l.43-2.398h.95l.403 2.381c.107.68.214 1.352.286 2.14h.017c.082-.788.152-1.432.234-2.131l.295-2.39h1.147l-1.066 6.033h-1.211l-.357-1.979a32.198 32.198 0 0 1-.27-1.979h-.017c-.107.725-.205 1.397-.331 1.988l-.403 1.97h-1.164Zm7.359-4.951h-1.066v-1.082h3.312v1.082h-1.074v4.951h-1.172v-4.95Zm4.002-1.082v6.033h-1.172v-6.033h1.172Zm1.012 6.033v-6.033h1.074l.931 2.364c.18.466.475 1.245.644 1.763h.017c-.036-.635-.115-1.684-.115-2.792v-1.333h1.029v6.033h-1.074l-.922-2.291c-.197-.51-.475-1.27-.61-1.816h-.017c.028.61.072 1.54.072 2.749v1.36h-1.029v-.004Zm5.236-4.951h-1.066v-1.082h3.312v1.082h-1.074v4.951h-1.172v-4.95Zm4.003-1.082v6.033h-1.173v-6.033h1.173Zm1.012 6.033v-6.033h1.074l.931 2.364c.179.466.475 1.245.644 1.763h.017c-.037-.635-.116-1.684-.116-2.792v-1.333h1.029v6.033h-1.074l-.922-2.291c-.197-.51-.475-1.27-.61-1.816h-.017c.028.61.073 1.54.073 2.749v1.36h-1.029v-.004Zm7.931-.16c-.259.107-.815.214-1.254.214-.689 0-1.208-.197-1.611-.6-.52-.5-.796-1.396-.778-2.434.027-2.193 1.279-3.107 2.561-3.107.455 0 .795.09.984.18l-.206 1.012c-.169-.09-.393-.135-.689-.135-.795 0-1.431.546-1.431 2.123 0 1.45.565 1.97 1.11 1.97a.682.682 0 0 0 .234-.028v-1.459h-.537v-.958h1.619v3.222h-.002Z"/>
</svg>
