<?xml version="1.0" encoding="UTF-8"?>
<svg xmlns="http://www.w3.org/2000/svg" xmlns:xlink="http://www.w3.org/1999/xlink" width="288px" height="238px" viewBox="0 0 288 238" version="1.1">
  <title>extraordinary-flooring-logo</title>
  <g id="Page-1" stroke="none" stroke-width="1" fill="none" fill-rule="evenodd">
    <g id="extraordinary-flooring-logo" transform="translate(-1, 0)">
      <g id="Group" transform="translate(41.2143, 0)">
        <polygon id="Fill-1" fill="#0957C3" points="161.7766 96.8113 105.6175 0 49.8331 96.6177 48.3089 96.6177 0 97.9851 0 98.2941 211.4558 98.2057 211.4558 97.9412"></polygon>
        <polygon id="Fill-2" fill="#AACA38" points="149.1937 96.6177 138.4693 96.6177 143.7545 87.2577"></polygon>
        <polygon id="Fill-3" fill="#AACA38" points="143.1709 86.2545 137.321 96.6146 119.361 96.6146 125.2709 85.9447 115.7709 69.7847 124.691 54.4546 137.571 76.6145"></polygon>
        <polygon id="Fill-4" fill="#AACA38" points="124.111 85.9645 118.2209 96.6146 100.1713 96.6146 115.2009 70.7745 122.7011 83.5545"></polygon>
        <polygon id="Fill-5" fill="#AACA38" points="124.111 53.4546 105.6609 85.1845 97.3111 70.7547 96.8114 69.8947 106.3009 53.0846 96.6113 36.6647 105.4108 21.2646 118.9009 44.4945"></polygon>
        <polygon id="Fill-6" fill="#AACA38" points="95.6614 69.9046 105.0809 86.1845 99.0114 96.6146 93.0611 96.6146 82.8114 78.8947 77.6211 69.9247 96.0412 37.6645 104.2512 51.5746 105.1509 53.0946"></polygon>
        <polygon id="Fill-7" fill="#AACA38" points="77.046 70.9296 91.9111 96.6177 74.075 96.6177 68.3504 86.1556"></polygon>
        <polygon id="Fill-8" fill="#AACA38" points="72.9312 96.6146 62.3713 96.6146 65.3514 91.4045 67.7713 87.1747"></polygon>
        <polygon id="Fill-9" fill="#FFFFFF" points="153.2645 96.6177 150.3505 96.6177 105.4001 19.2631 61.2244 96.6177 57.0725 96.6177 105.7499 12.9704 153.735 96.6282"></polygon>
        <path d="M115.2009,70.7745 L122.7011,83.5545 C110.9908,84.5047 107.6009,94.0147 106.8911,96.6146 L100.1713,96.6146 L115.2009,70.7745 Z" id="Fill-10" fill="#1FA356"></path>
        <path d="M105.6609,85.1845 L97.3111,70.7547 C98.9113,71.2247 103.1213,71.9245 108.1511,68.4147 C113.821,64.4547 117.991,48.1745 118.9009,44.4945 L124.111,53.4546 L105.6609,85.1845 Z" id="Fill-11" fill="#1FA356"></path>
        <path d="M104.2512,51.5746 C101.7814,51.5046 94.8013,51.8947 90.4113,58.1045 C85.8013,64.6146 83.4214,75.7346 82.8114,78.8947 L77.6211,69.9247 L96.0412,37.6645 L104.2512,51.5746 Z" id="Fill-12" fill="#1FA356"></path>
        <path d="M143.1709,86.2545 L137.321,96.6146 L130.8711,96.6146 C132.171,94.0745 136.8111,84.5645 137.571,76.6145 L143.1709,86.2545 Z" id="Fill-13" fill="#1FA356"></path>
        <path d="M70.8012,96.6146 L62.3713,96.6146 L65.3514,91.4045 C66.9912,93.2947 68.8312,95.1545 70.8012,96.6146" id="Fill-14" fill="#1FA356"></path>
      </g>
      <g id="Group" transform="translate(41.2143, 139.5569)">
        <polygon id="Fill-15" fill="#0957C3" points="49.6792 1.4828 105.838 98.2942 161.6227 1.6764 163.1469 1.6764 211.4558 0.309 211.4558 0 0 0.0882 0 0.3529"></polygon>
        <polygon id="Fill-16" fill="#AACA38" points="62.2622 1.6764 72.9865 1.6764 67.701 11.0364"></polygon>
        <polygon id="Fill-17" fill="#AACA38" points="68.2849 12.0396 74.1348 1.6796 92.0948 1.6796 86.1849 12.3494 95.6849 28.5095 86.7648 43.8395 73.8848 21.6794"></polygon>
        <polygon id="Fill-18" fill="#AACA38" points="87.3448 12.3296 93.2346 1.6796 111.2845 1.6796 96.2547 27.5196 88.7548 14.7396"></polygon>
        <polygon id="Fill-19" fill="#AACA38" points="87.3448 44.8396 105.7947 13.1094 114.1447 27.5395 114.6447 28.3995 105.1546 45.2095 114.8446 61.6295 106.0447 77.0295 92.5549 53.7996"></polygon>
        <polygon id="Fill-20" fill="#AACA38" points="115.7944 28.3896 106.3743 12.1096 112.4445 1.6796 118.3947 1.6796 128.6445 19.3995 133.8347 28.3694 115.4146 60.6294 107.2046 46.7195 106.3046 45.1996"></polygon>
        <polygon id="Fill-21" fill="#AACA38" points="134.4098 27.3646 119.5447 1.6764 137.3808 1.6764 143.1054 12.1385"></polygon>
        <polygon id="Fill-22" fill="#AACA38" points="138.5246 1.6796 149.0845 1.6796 146.1045 6.8896 143.6845 11.1195"></polygon>
        <polygon id="Fill-23" fill="#FFFFFF" points="58.1913 1.6764 61.1051 1.6764 106.0554 79.0311 150.2314 1.6764 154.3833 1.6764 105.7057 85.3237 57.7208 1.6659"></polygon>
        <path d="M96.2547,27.5196 L88.7548,14.7396 C100.465,13.7894 103.8549,4.2795 104.5644,1.6796 L111.2845,1.6796 L96.2547,27.5196 Z" id="Fill-24" fill="#1FA356"></path>
        <path d="M105.7947,13.1094 L114.1447,27.5395 C112.5445,27.0695 108.3345,26.3696 103.3047,29.8795 C97.6348,33.8395 93.4648,50.1194 92.5549,53.7996 L87.3448,44.8396 L105.7947,13.1094 Z" id="Fill-25" fill="#1FA356"></path>
        <path d="M107.2046,46.7195 C109.6744,46.7895 116.6545,46.3995 121.0445,40.1896 C125.6545,33.6796 128.0344,22.5596 128.6445,19.3995 L133.8347,28.3694 L115.4146,60.6294 L107.2046,46.7195 Z" id="Fill-26" fill="#1FA356"></path>
        <path d="M68.2849,12.0396 L74.1348,1.6796 L80.5847,1.6796 C79.2848,4.2194 74.6447,13.7296 73.8848,21.6794 L68.2849,12.0396 Z" id="Fill-27" fill="#1FA356"></path>
        <path d="M140.6546,1.6796 L149.0845,1.6796 L146.1045,6.8896 C144.4646,4.9995 142.6244,3.1394 140.6546,1.6796" id="Fill-28" fill="#1FA356"></path>
      </g>
      <polygon id="Fill-29" fill="#0957C3" points="11.2666 107.7553 11.2666 111.0928 4.5161 111.0928 4.5161 117.2369 9.4918 117.2369 9.4918 120.5747 4.5161 120.5747 4.5161 127.781 11.2666 127.781 11.2666 131.1188 1 131.1188 1 107.7553"></polygon>
      <polygon id="Fill-30" fill="#0957C3" points="21.0761 118.9323 26.3667 131.1188 22.4861 131.1188 19.0358 122.6296 15.8184 131.1188 11.9869 131.1188 17.0288 118.9323 12.1861 107.7553 16.0503 107.7553 19.0689 115.2515 21.8888 107.7553 25.7201 107.7553"></polygon>
      <polygon id="Fill-31" fill="#0957C3" points="33.8712 111.0928 33.8712 131.1188 30.3551 131.1188 30.3551 111.0928 25.96 111.0928 25.96 107.7553 38.2501 107.7553 38.2501 111.0928"></polygon>
      <path d="M43.2995,121.5337 L43.2995,131.1188 L39.7834,131.1188 L39.7834,107.7553 L45.2897,107.7553 C47.2354,107.7553 48.7287,108.223 49.7676,109.1585 C51.1169,110.3686 51.7909,112.1312 51.7909,114.4479 C51.7909,117.4147 50.7739,119.44 48.7394,120.524 L52.0733,131.1188 L48.3911,131.1188 L45.3892,121.5337 L43.2995,121.5337 Z M43.2995,118.1959 L43.2995,118.1959 L44.5762,118.1959 C45.5386,118.1959 46.2237,118.1052 46.6327,117.9226 C47.6611,117.4654 48.1754,116.3707 48.1754,114.6353 C48.1754,113.358 47.8876,112.4282 47.3131,111.846 C46.9817,111.4925 46.5777,111.2754 46.1021,111.1957 C45.6823,111.1268 45.1735,111.0928 44.5762,111.0928 L43.2995,111.0928 L43.2995,118.1959 Z" id="Fill-32" fill="#0957C3"></path>
      <path d="M62.6451,126.0348 L57.8188,126.0348 L56.9069,131.1188 L53.4733,131.1188 L57.8188,107.7553 L62.6289,107.7553 L67.2066,131.1188 L63.6074,131.1188 L62.6451,126.0348 Z M62.0484,122.6979 L62.0484,122.6979 L60.1906,112.2397 L58.3829,122.6979 L62.0484,122.6979 Z" id="Fill-33" fill="#0957C3"></path>
      <path d="M81.1621,115.1832 L81.1621,123.69 C81.1621,125.3902 80.9966,126.7205 80.6646,127.6783 C79.78,130.2009 77.8892,131.4617 74.9922,131.4617 C72.7809,131.4617 71.1499,130.7134 70.0996,129.2184 C69.5466,128.4205 69.1872,127.5298 69.0216,126.5485 C68.8776,125.6706 68.8056,124.7173 68.8056,123.69 L68.8056,115.1832 C68.8056,113.483 68.9717,112.1541 69.3034,111.1957 C70.1989,108.6737 72.0952,107.4129 74.9922,107.4129 C77.1925,107.4129 78.8179,108.1607 79.8687,109.6551 C80.4328,110.4542 80.7916,111.3443 80.947,112.3251 C81.0904,113.2041 81.1621,114.1568 81.1621,115.1832 Z M72.322,115.2515 L72.322,115.2515 L72.322,123.6217 C72.322,124.74 72.3662,125.5045 72.4547,125.9158 C72.7755,127.3532 73.6211,128.0718 74.9922,128.0718 C76.0425,128.0718 76.7778,127.65 77.1984,126.8053 C77.4303,126.3492 77.563,125.8474 77.5961,125.2995 C77.6296,124.8434 77.646,124.2839 77.646,123.6217 L77.646,115.2515 C77.646,114.1217 77.6015,113.3523 77.5134,112.9413 C77.2035,111.5152 76.3634,110.8017 74.9922,110.8017 C73.9307,110.8017 73.19,111.2241 72.7696,112.0682 C72.5377,112.5249 72.4048,113.0215 72.3716,113.5573 C72.3384,114.025 72.322,114.5905 72.322,115.2515 L72.322,115.2515 Z" id="Fill-34" fill="#0957C3"></path>
      <path d="M87.5049,121.5337 L87.5049,131.1188 L83.9888,131.1188 L83.9888,107.7553 L89.4951,107.7553 C91.4408,107.7553 92.9341,108.223 93.9733,109.1585 C95.3223,110.3686 95.9967,112.1312 95.9967,114.4479 C95.9967,117.4147 94.9796,119.44 92.9449,120.524 L96.2787,131.1188 L92.5968,131.1188 L89.5946,121.5337 L87.5049,121.5337 Z M87.5049,118.1959 L87.5049,118.1959 L88.7819,118.1959 C89.7443,118.1959 90.4291,118.1052 90.8385,117.9226 C91.8669,117.4654 92.3811,116.3707 92.3811,114.6353 C92.3811,113.358 92.0934,112.4282 91.5188,111.846 C91.1871,111.4925 90.7832,111.2754 90.3075,111.1957 C89.8877,111.1268 89.3789,111.0928 88.7819,111.0928 L87.5049,111.0928 L87.5049,118.1959 Z" id="Fill-35" fill="#0957C3"></path>
      <path d="M98.4923,131.1188 L98.4923,107.7553 L104.0318,107.7553 C108.4326,107.7553 110.6164,110.1917 110.5832,115.063 L110.5832,123.8102 C110.6164,128.6824 108.4326,131.1188 104.0318,131.1188 L98.4923,131.1188 Z M102.0084,127.781 L102.0084,127.781 L103.7168,127.781 C104.9218,127.7702 105.7841,127.3991 106.3043,126.6686 C106.636,126.189 106.8457,125.6414 106.9342,125.0251 C107.0226,124.3981 107.0668,123.6619 107.0668,122.8169 L107.0668,116.0563 C107.0668,114.6412 106.9673,113.6715 106.7686,113.1465 C106.4812,112.3027 106.0109,111.7261 105.3584,111.418 C104.9162,111.2017 104.3688,111.0928 103.7168,111.0928 L102.0084,111.0928 L102.0084,127.781 Z" id="Fill-36" fill="#0957C3"></path>
      <polygon id="Fill-37" fill="#0957C3" points="116.9093 107.7553 116.9093 131.1188 113.3932 131.1188 113.3932 107.7553"></polygon>
      <polygon id="Fill-38" fill="#0957C3" points="133.8491 107.7553 133.8491 131.1188 130.6978 131.1188 124.6274 115.5767 124.6274 131.1188 121.2942 131.1188 121.2942 107.7553 124.8103 107.7553 130.5156 122.2868 130.5156 107.7553"></polygon>
      <path d="M145.3994,126.0348 L140.5735,126.0348 L139.6613,131.1188 L136.2277,131.1188 L140.5735,107.7553 L145.3833,107.7553 L149.9612,131.1188 L146.3618,131.1188 L145.3994,126.0348 Z M144.8028,122.6979 L144.8028,122.6979 L142.9449,112.2397 L141.1373,122.6979 L144.8028,122.6979 Z" id="Fill-39" fill="#0957C3"></path>
      <path d="M155.4582,121.5337 L155.4582,131.1188 L151.9418,131.1188 L151.9418,107.7553 L157.4484,107.7553 C159.3947,107.7553 160.8871,108.223 161.9271,109.1585 C163.2756,110.3686 163.9505,112.1312 163.9505,114.4479 C163.9505,117.4147 162.9329,119.44 160.8987,120.524 L164.2317,131.1188 L160.5501,131.1188 L157.5482,121.5337 L155.4582,121.5337 Z M155.4582,118.1959 L155.4582,118.1959 L156.7358,118.1959 C157.6976,118.1959 158.383,118.1052 158.7923,117.9226 C159.8207,117.4654 160.3343,116.3707 160.3343,114.6353 C160.3343,113.358 160.0472,112.4282 159.472,111.846 C159.1398,111.4925 158.7365,111.2754 158.2611,111.1957 C157.841,111.1268 157.3322,111.0928 156.7358,111.0928 L155.4582,111.0928 L155.4582,118.1959 Z" id="Fill-40" fill="#0957C3"></path>
      <polygon id="Fill-41" fill="#0957C3" points="172.9916 121.9957 172.9916 131.1188 169.4925 131.1188 169.4925 121.9957 164.3998 107.7553 168.2648 107.7553 171.2834 117.6315 174.4183 107.7553 178.2326 107.7553"></polygon>
      <polygon id="Fill-42" fill="#0957C3" points="187.7513 120.7292 187.7513 131.1188 184.2347 131.1188 184.2347 107.7553 194.601 107.7553 194.601 111.0928 187.7513 111.0928 187.7513 117.3914 192.8097 117.3914 192.8097 120.7292"></polygon>
      <polygon id="Fill-43" fill="#0957C3" points="199.8167 107.7553 199.8167 127.781 206.7826 127.781 206.7826 131.1188 196.3 131.1188 196.3 107.7553"></polygon>
      <path d="M219.4495,115.1832 L219.4495,123.69 C219.4495,125.3902 219.2834,126.7205 218.9514,127.6783 C218.0667,130.2009 216.176,131.4617 213.2796,131.4617 C211.0677,131.4617 209.4366,130.7134 208.3858,129.2184 C207.8334,128.4205 207.4739,127.5298 207.3078,126.5485 C207.1644,125.6706 207.093,124.7173 207.093,123.69 L207.093,115.1832 C207.093,113.483 207.2579,112.1541 207.5902,111.1957 C208.4856,108.6737 210.382,107.4129 213.2796,107.4129 C215.4798,107.4129 217.1046,108.1607 218.1554,109.6551 C218.719,110.4542 219.0784,111.3443 219.2337,112.3251 C219.3772,113.2041 219.4495,114.1568 219.4495,115.1832 Z M210.6088,115.2515 L210.6088,115.2515 L210.6088,123.6217 C210.6088,124.74 210.6527,125.5045 210.7414,125.9158 C211.0617,127.3532 211.9076,128.0718 213.2796,128.0718 C214.3292,128.0718 215.0648,127.65 215.4846,126.8053 C215.7171,126.3492 215.8497,125.8474 215.8832,125.2995 C215.9164,124.8434 215.9328,124.2839 215.9328,123.6217 L215.9328,115.2515 C215.9328,114.1217 215.8889,113.3523 215.8001,112.9413 C215.4906,111.5152 214.6496,110.8017 213.2796,110.8017 C212.218,110.8017 211.4767,111.2241 211.0569,112.0682 C210.8245,112.5249 210.6915,113.0215 210.6584,113.5573 C210.6252,114.025 210.6088,114.5905 210.6088,115.2515 L210.6088,115.2515 Z" id="Fill-44" fill="#0957C3"></path>
      <path d="M234.4008,115.1832 L234.4008,123.69 C234.4008,125.3902 234.2347,126.7205 233.9025,127.6783 C233.0178,130.2009 231.1274,131.4617 228.2309,131.4617 C226.0188,131.4617 224.388,130.7134 223.3372,129.2184 C222.7844,128.4205 222.425,127.5298 222.2592,126.5485 C222.1154,125.6706 222.0443,124.7173 222.0443,123.69 L222.0443,115.1832 C222.0443,113.483 222.2093,112.1541 222.5412,111.1957 C223.4367,108.6737 225.3333,107.4129 228.2309,107.4129 C230.4309,107.4129 232.056,108.1607 233.1068,109.6551 C233.6703,110.4542 234.0295,111.3443 234.1848,112.3251 C234.3282,113.2041 234.4008,114.1568 234.4008,115.1832 Z M225.5598,115.2515 L225.5598,115.2515 L225.5598,123.6217 C225.5598,124.74 225.6038,125.5045 225.6928,125.9158 C226.0131,127.3532 226.8587,128.0718 228.2309,128.0718 C229.2806,128.0718 230.0159,127.65 230.4357,126.8053 C230.6681,126.3492 230.8011,125.8474 230.8343,125.2995 C230.8674,124.8434 230.8841,124.2839 230.8841,123.6217 L230.8841,115.2515 C230.8841,114.1217 230.8402,113.3523 230.7512,112.9413 C230.4417,111.5152 229.6009,110.8017 228.2309,110.8017 C227.1691,110.8017 226.4281,111.2241 226.008,112.0682 C225.7755,112.5249 225.6429,113.0215 225.6097,113.5573 C225.5766,114.025 225.5598,114.5905 225.5598,115.2515 L225.5598,115.2515 Z" id="Fill-45" fill="#0957C3"></path>
      <path d="M240.7436,121.5337 L240.7436,131.1188 L237.2269,131.1188 L237.2269,107.7553 L242.7338,107.7553 C244.6801,107.7553 246.1722,108.223 247.2123,109.1585 C248.5607,110.3686 249.2356,112.1312 249.2356,114.4479 C249.2356,117.4147 248.218,119.44 246.1839,120.524 L249.5168,131.1188 L245.8352,131.1188 L242.8333,121.5337 L240.7436,121.5337 Z M240.7436,118.1959 L240.7436,118.1959 L242.0209,118.1959 C242.9827,118.1959 243.6684,118.1052 244.0774,117.9226 C245.1058,117.4654 245.6195,116.3707 245.6195,114.6353 C245.6195,113.358 245.3323,112.4282 244.7572,111.846 C244.425,111.4925 244.0219,111.2754 243.5462,111.1957 C243.1264,111.1268 242.6176,111.0928 242.0209,111.0928 L240.7436,111.0928 L240.7436,118.1959 Z" id="Fill-46" fill="#0957C3"></path>
      <polygon id="Fill-47" fill="#0957C3" points="255.9251 107.7553 255.9251 131.1188 252.4085 131.1188 252.4085 107.7553"></polygon>
      <polygon id="Fill-48" fill="#0957C3" points="272.8655 107.7553 272.8655 131.1188 269.7143 131.1188 263.6439 115.5767 263.6439 131.1188 260.3097 131.1188 260.3097 107.7553 263.8264 107.7553 269.5317 122.2868 269.5317 107.7553"></polygon>
      <path d="M281.6303,119.5143 L288.0159,119.5143 L288.0159,131.1188 L286.1906,131.1188 L285.5775,129.1334 C285.1018,129.7955 284.6321,130.2916 284.1673,130.6227 C283.3608,131.1814 282.4095,131.4617 281.3148,131.4617 C279.9105,131.4617 278.7279,131.0329 277.7658,130.1774 C276.7697,129.2986 276.1342,127.9978 275.8578,126.2749 C275.7141,125.4302 275.6429,124.1696 275.6429,122.4918 L275.6429,116.0563 C275.6429,113.82 275.7807,112.2684 276.0568,111.4007 C276.5324,109.8603 277.4174,108.7591 278.7111,108.0975 C279.6066,107.6411 280.6234,107.4129 281.7629,107.4129 C284.2835,107.4129 286.0636,108.4512 287.1028,110.5282 C287.6567,111.6235 287.9271,113.2324 287.9164,115.3542 L284.3997,115.3542 C284.3997,113.9742 284.2668,112.9697 284.0011,112.3421 C283.5589,111.3154 282.8078,110.8017 281.7465,110.8017 C280.762,110.8017 280.0647,111.2017 279.6565,111.9999 C279.4124,112.4793 279.269,112.9932 279.2248,113.5408 C279.1808,114.0533 279.1584,114.6588 279.1584,115.3542 L279.1584,122.4918 C279.1584,124.2379 279.2854,125.5045 279.5403,126.2916 C279.9161,127.4791 280.7064,128.0718 281.9114,128.0718 C282.9291,128.0718 283.6369,127.6041 284.0346,126.6686 C284.3441,125.9498 284.4992,124.8718 284.4992,123.4332 L284.4992,122.4918 L281.6303,122.4918 L281.6303,119.5143 Z" id="Fill-49" fill="#0957C3"></path>
    </g>
  </g>
</svg>
