<?xml version="1.0" encoding="UTF-8"?>
<svg xmlns="http://www.w3.org/2000/svg" id="Layer_2" viewBox="0 0 1763.23 406.36">
  <defs>
    <style>.cls-1{fill:#16a7e0;isolation:isolate;}.cls-2{fill:#616161;}</style>
  </defs>
  <g id="InLine">
    <path class="cls-2" d="M519.01,396.59c-7.74,0-14.98-1.46-21.71-4.4-6.74-2.93-12.66-7.02-17.77-12.27-5.11-5.25-9.1-11.3-11.97-18.16-2.87-6.86-4.3-14.21-4.3-22.06s1.41-15.06,4.23-21.92c2.82-6.85,6.78-12.88,11.9-18.09,5.11-5.2,11.04-9.29,17.77-12.27s14.02-4.47,21.86-4.47c6.88,0,13.14.99,18.78,2.98,5.64,1.99,11.08,5.16,16.34,9.5.86.66,1.36,1.44,1.5,2.34.14.9.02,1.75-.36,2.55-.38.8-.96,1.4-1.72,1.77-.19.76-.67,1.33-1.43,1.7-.77.38-1.65.52-2.65.43-1-.09-1.98-.52-2.94-1.28-3.73-3.21-7.79-5.6-12.18-7.16-4.4-1.56-9.51-2.34-15.34-2.34-6.21,0-12.02,1.23-17.41,3.69-5.4,2.46-10.15,5.82-14.26,10.07-4.11,4.26-7.33,9.17-9.67,14.75-2.34,5.58-3.51,11.49-3.51,17.73s1.17,12.44,3.51,18.01c2.34,5.58,5.56,10.5,9.67,14.75,4.11,4.26,8.86,7.59,14.26,10,5.4,2.41,11.2,3.62,17.41,3.62,5.25,0,10.22-.85,14.91-2.55,4.68-1.7,9.12-4.16,13.33-7.38,1.15-.94,2.36-1.32,3.65-1.13,1.29.19,2.41.76,3.37,1.7.95.95,1.43,2.18,1.43,3.69,0,.76-.12,1.44-.36,2.06-.24.62-.65,1.25-1.22,1.91-4.87,4.45-10.32,7.59-16.34,9.43-6.02,1.84-12.28,2.77-18.78,2.77Z"></path>
    <path class="cls-2" d="M584.36,395.17c-1.63,0-2.96-.52-4.01-1.56-1.05-1.04-1.58-2.36-1.58-3.97v-99.72c0-1.61.52-2.93,1.58-3.97,1.05-1.04,2.39-1.56,4.01-1.56h26.8c6.97,0,13.19,1.44,18.63,4.33,5.45,2.89,9.72,6.9,12.83,12.06,3.1,5.16,4.66,11.09,4.66,17.8s-1.55,12.15-4.66,17.16c-3.11,5.01-7.38,8.94-12.83,11.77-5.45,2.84-11.66,4.26-18.63,4.26h-21.21v37.87c0,1.61-.53,2.93-1.58,3.97-1.05,1.04-2.39,1.56-4.01,1.56ZM589.95,341.13h21.21c4.87,0,9.2-.97,12.97-2.91,3.77-1.94,6.76-4.61,8.96-8.01,2.2-3.4,3.3-7.28,3.3-11.63,0-4.63-1.1-8.72-3.3-12.27-2.2-3.55-5.18-6.31-8.96-8.3-3.78-1.99-8.1-2.98-12.97-2.98h-21.21v46.1ZM644.27,395.17c-1.24,0-2.22-.23-2.94-.71-.72-.47-1.36-1.18-1.94-2.13l-27.52-43.41,11.18-2.84,25.66,40.57c1.43,2.27,1.7,4.26.79,5.96-.91,1.7-2.65,2.55-5.23,2.55Z"></path>
    <path class="cls-2" d="M672.94,395.17c-1.63,0-2.96-.52-4.01-1.56-1.05-1.04-1.58-2.36-1.58-3.97v-99.72c0-1.61.52-2.93,1.58-3.97,1.05-1.04,2.39-1.56,4.01-1.56h67.22c1.53,0,2.84.5,3.94,1.49,1.1.99,1.65,2.29,1.65,3.9,0,1.42-.55,2.65-1.65,3.69-1.1,1.04-2.41,1.56-3.94,1.56h-61.63v39.15h44.86c1.62,0,2.96.52,4.01,1.56,1.05,1.04,1.58,2.32,1.58,3.83s-.53,2.79-1.58,3.83c-1.05,1.04-2.39,1.56-4.01,1.56h-44.86v39.58h61.63c1.53,0,2.84.52,3.94,1.56,1.1,1.04,1.65,2.27,1.65,3.69,0,1.61-.55,2.91-1.65,3.9-1.1.99-2.41,1.49-3.94,1.49h-67.22Z"></path>
    <path class="cls-2" d="M760.37,395.17c-2.2,0-3.78-.9-4.73-2.7-.96-1.79-1.05-3.55-.29-5.25l42.14-99.01c1.05-2.55,2.87-3.83,5.45-3.83s4.25,1.28,5.3,3.83l42.28,99.15c.86,1.8.74,3.55-.36,5.25-1.1,1.7-2.65,2.55-4.66,2.55-1.15,0-2.17-.28-3.08-.85-.91-.57-1.65-1.42-2.22-2.55l-39.42-94.61h4.44l-39.7,94.61c-.48,1.13-1.17,1.99-2.08,2.55-.91.57-1.94.85-3.08.85ZM769.83,368.79l4.3-9.5h58.19l4.3,9.5h-66.79Z"></path>
    <path class="cls-2" d="M860.27,294.46c-1.53,0-2.77-.47-3.73-1.42-.96-.94-1.43-2.13-1.43-3.55,0-1.51.48-2.74,1.43-3.69.95-.94,2.2-1.42,3.73-1.42h79.26c1.53,0,2.77.47,3.73,1.42.95.95,1.43,2.18,1.43,3.69,0,1.42-.48,2.6-1.43,3.55-.96.95-2.2,1.42-3.73,1.42h-79.26ZM899.83,395.17c-1.53,0-2.84-.54-3.94-1.63-1.1-1.09-1.65-2.39-1.65-3.9v-105.25h11.18v105.25c0,1.51-.53,2.81-1.58,3.9-1.05,1.09-2.39,1.63-4.01,1.63Z"></path>
    <path class="cls-2" d="M966.76,395.17c-1.63,0-2.96-.52-4.01-1.56-1.05-1.04-1.58-2.36-1.58-3.97v-99.72c0-1.61.52-2.93,1.58-3.97,1.05-1.04,2.39-1.56,4.01-1.56s2.96.52,4.01,1.56c1.05,1.04,1.58,2.36,1.58,3.97v99.72c0,1.61-.53,2.93-1.58,3.97-1.05,1.04-2.39,1.56-4.01,1.56Z"></path>
    <path class="cls-2" d="M1038.14,395.17c-2.39,0-4.11-1.18-5.16-3.55l-42.57-98.58c-1.05-2.65-1.12-4.75-.21-6.31.91-1.56,2.51-2.34,4.8-2.34s4.11,1.18,5.16,3.55l39.56,93.62h-3.15l39.42-93.34c.57-1.42,1.29-2.41,2.15-2.98.86-.57,2.01-.85,3.44-.85,2.2,0,3.68.83,4.44,2.48.76,1.66.72,3.52-.14,5.6l-42.71,99.15c-.57,1.33-1.29,2.25-2.15,2.77-.86.52-1.82.78-2.87.78Z"></path>
    <path class="cls-2" d="M1109.23,395.17c-1.63,0-2.96-.52-4.01-1.56-1.05-1.04-1.58-2.36-1.58-3.97v-99.72c0-1.61.52-2.93,1.58-3.97,1.05-1.04,2.39-1.56,4.01-1.56h67.22c1.53,0,2.84.5,3.94,1.49,1.1.99,1.65,2.29,1.65,3.9,0,1.42-.55,2.65-1.65,3.69-1.1,1.04-2.41,1.56-3.94,1.56h-61.63v39.15h44.86c1.62,0,2.96.52,4.01,1.56,1.05,1.04,1.58,2.32,1.58,3.83s-.53,2.79-1.58,3.83c-1.05,1.04-2.39,1.56-4.01,1.56h-44.86v39.58h61.63c1.53,0,2.84.52,3.94,1.56,1.1,1.04,1.65,2.27,1.65,3.69,0,1.61-.55,2.91-1.65,3.9-1.1.99-2.41,1.49-3.94,1.49h-67.22Z"></path>
    <path class="cls-2" d="M1295.12,396.59c-7.74,0-14.98-1.46-21.71-4.4-6.74-2.93-12.66-7.02-17.77-12.27-5.11-5.25-9.1-11.3-11.97-18.16-2.87-6.86-4.3-14.21-4.3-22.06s1.41-15.06,4.23-21.92c2.82-6.85,6.78-12.88,11.9-18.09,5.11-5.2,11.04-9.29,17.77-12.27s14.02-4.47,21.86-4.47c6.88,0,13.14.99,18.78,2.98,5.64,1.99,11.08,5.16,16.34,9.5.86.66,1.36,1.44,1.5,2.34.14.9.02,1.75-.36,2.55-.38.8-.96,1.4-1.72,1.77-.19.76-.67,1.33-1.43,1.7-.77.38-1.65.52-2.65.43-1-.09-1.98-.52-2.94-1.28-3.73-3.21-7.79-5.6-12.18-7.16-4.4-1.56-9.51-2.34-15.34-2.34-6.21,0-12.02,1.23-17.41,3.69-5.4,2.46-10.15,5.82-14.26,10.07-4.11,4.26-7.33,9.17-9.67,14.75-2.34,5.58-3.51,11.49-3.51,17.73s1.17,12.44,3.51,18.01c2.34,5.58,5.56,10.5,9.67,14.75,4.11,4.26,8.86,7.59,14.26,10,5.4,2.41,11.2,3.62,17.41,3.62,5.25,0,10.22-.85,14.91-2.55,4.68-1.7,9.12-4.16,13.33-7.38,1.15-.94,2.36-1.32,3.65-1.13,1.29.19,2.41.76,3.37,1.7.95.95,1.43,2.18,1.43,3.69,0,.76-.1,1.44-.29,2.06-.19.62-.62,1.25-1.29,1.91-4.87,4.45-10.32,7.59-16.34,9.43-6.02,1.84-12.28,2.77-18.78,2.77ZM1331.81,380.42l-10.89-2.27v-28.51h-22.36c-1.63,0-2.96-.47-4.01-1.42-1.05-.94-1.58-2.13-1.58-3.55s.52-2.58,1.58-3.48c1.05-.9,2.39-1.35,4.01-1.35h27.66c1.62,0,2.96.5,4.01,1.49,1.05.99,1.58,2.29,1.58,3.9v35.18Z"></path>
    <path class="cls-2" d="M1360.48,395.17c-1.63,0-2.96-.52-4.01-1.56-1.05-1.04-1.58-2.36-1.58-3.97v-99.72c0-1.61.52-2.93,1.58-3.97,1.05-1.04,2.39-1.56,4.01-1.56h26.8c6.97,0,13.19,1.44,18.63,4.33,5.45,2.89,9.72,6.9,12.83,12.06,3.1,5.16,4.66,11.09,4.66,17.8s-1.55,12.15-4.66,17.16c-3.11,5.01-7.38,8.94-12.83,11.77-5.45,2.84-11.66,4.26-18.63,4.26h-21.21v37.87c0,1.61-.53,2.93-1.58,3.97-1.05,1.04-2.39,1.56-4.01,1.56ZM1366.07,341.13h21.21c4.87,0,9.2-.97,12.97-2.91,3.77-1.94,6.76-4.61,8.96-8.01,2.2-3.4,3.3-7.28,3.3-11.63,0-4.63-1.1-8.72-3.3-12.27-2.2-3.55-5.18-6.31-8.96-8.3-3.78-1.99-8.1-2.98-12.97-2.98h-21.21v46.1ZM1420.39,395.17c-1.24,0-2.22-.23-2.94-.71-.72-.47-1.36-1.18-1.94-2.13l-27.52-43.41,11.18-2.84,25.66,40.57c1.43,2.27,1.7,4.26.79,5.96-.91,1.7-2.65,2.55-5.23,2.55Z"></path>
    <path class="cls-2" d="M1495.21,396.59c-8.31,0-15.96-1.42-22.93-4.26-6.98-2.84-13.02-6.81-18.13-11.92-5.11-5.11-9.08-11.11-11.9-18.01-2.82-6.9-4.23-14.47-4.23-22.7s1.41-15.65,4.23-22.55c2.82-6.9,6.78-12.91,11.9-18.01,5.11-5.11,11.16-9.08,18.13-11.92,6.97-2.84,14.62-4.26,22.93-4.26s15.81,1.42,22.79,4.26c6.97,2.84,13.04,6.81,18.2,11.92,5.16,5.11,9.15,11.11,11.97,18.01,2.82,6.9,4.23,14.42,4.23,22.55s-1.41,15.79-4.23,22.7c-2.82,6.9-6.81,12.91-11.97,18.01-5.16,5.11-11.23,9.08-18.2,11.92-6.98,2.84-14.57,4.26-22.79,4.26ZM1495.21,386.09c6.59,0,12.71-1.16,18.35-3.48,5.64-2.32,10.53-5.58,14.69-9.79,4.16-4.21,7.38-9.12,9.67-14.75,2.29-5.62,3.44-11.75,3.44-18.37s-1.15-12.6-3.44-18.23c-2.29-5.63-5.52-10.54-9.67-14.75-4.16-4.21-9.05-7.47-14.69-9.79-5.64-2.32-11.75-3.48-18.35-3.48s-12.85,1.16-18.49,3.48c-5.64,2.32-10.53,5.58-14.69,9.79-4.16,4.21-7.38,9.13-9.67,14.75-2.29,5.63-3.44,11.7-3.44,18.23s1.15,12.74,3.44,18.37c2.29,5.63,5.52,10.55,9.67,14.75,4.16,4.21,9.05,7.47,14.69,9.79,5.64,2.32,11.8,3.48,18.49,3.48Z"></path>
    <path class="cls-2" d="M1620.04,397.44c-8.7,0-16.41-1.66-23.15-4.96-6.74-3.31-11.99-7.89-15.77-13.76-3.78-5.86-5.66-12.58-5.66-20.14v-68.65c0-1.61.52-2.93,1.58-3.97,1.05-1.04,2.39-1.56,4.01-1.56s2.96.52,4.01,1.56c1.05,1.04,1.58,2.36,1.58,3.97v68.65c0,5.58,1.41,10.5,4.23,14.75,2.82,4.26,6.76,7.59,11.82,10,5.06,2.41,10.84,3.62,17.34,3.62s12.09-1.21,17.06-3.62c4.97-2.41,8.86-5.75,11.68-10,2.82-4.26,4.23-9.17,4.23-14.75v-68.65c0-1.61.52-2.93,1.58-3.97,1.05-1.04,2.39-1.56,4.01-1.56,1.72,0,3.08.52,4.08,1.56,1,1.04,1.5,2.36,1.5,3.97v68.65c0,7.57-1.89,14.28-5.66,20.14-3.78,5.86-8.98,10.45-15.62,13.76-6.64,3.31-14.26,4.96-22.86,4.96Z"></path>
    <path class="cls-2" d="M1698.44,395.17c-1.63,0-2.96-.52-4.01-1.56-1.05-1.04-1.58-2.36-1.58-3.97v-99.72c0-1.61.52-2.93,1.58-3.97,1.05-1.04,2.39-1.56,4.01-1.56h28.67c7.07,0,13.33,1.54,18.78,4.61,5.45,3.07,9.7,7.31,12.76,12.7,3.06,5.39,4.59,11.63,4.59,18.72s-1.53,13.03-4.59,18.37c-3.06,5.34-7.31,9.55-12.76,12.62-5.45,3.07-11.71,4.61-18.78,4.61h-23.08v33.62c0,1.61-.53,2.93-1.58,3.97-1.05,1.04-2.39,1.56-4.01,1.56ZM1704.03,345.38h23.08c4.87,0,9.22-1.06,13.04-3.19,3.82-2.13,6.81-5.08,8.96-8.87,2.15-3.78,3.23-8.09,3.23-12.91s-1.08-9.41-3.23-13.19c-2.15-3.78-5.14-6.76-8.96-8.94-3.82-2.17-8.17-3.26-13.04-3.26h-23.08v50.36Z"></path>
    <path class="cls-1" d="M478.4,233.07c-3.71,0-6.73-1.17-9.07-3.51-2.34-2.34-3.51-5.36-3.51-9.07V17.12c0-3.7,1.17-6.73,3.51-9.07,2.34-2.34,5.36-3.51,9.07-3.51h58.52c14.43,0,27.26,3.17,38.48,9.51,11.22,6.34,19.94,15.12,26.19,26.34,6.24,11.22,9.36,24.24,9.36,39.06s-3.12,26.88-9.36,37.89c-6.25,11.02-14.97,19.71-26.19,26.04-11.22,6.34-24.05,9.51-38.48,9.51h-45.94v67.6c0,3.71-1.17,6.73-3.51,9.07s-5.37,3.51-9.07,3.51ZM490.98,128.9h45.94c9.56,0,18.09-2.09,25.6-6.29,7.51-4.19,13.41-10.04,17.7-17.56,4.29-7.51,6.44-16.04,6.44-25.6,0-10.14-2.1-19.02-6.29-26.63-4.2-7.61-10.1-13.61-17.7-18-7.61-4.39-16.19-6.58-25.75-6.58h-45.94v100.66Z"></path>
    <path class="cls-1" d="M658.36,233.07c-3.71,0-6.73-1.17-9.07-3.51-2.34-2.34-3.51-5.36-3.51-9.07V17.12c0-3.7,1.17-6.73,3.51-9.07,2.34-2.34,5.36-3.51,9.07-3.51h54.14c14.24,0,26.97,3.03,38.19,9.07,11.22,6.05,19.99,14.39,26.34,25.02,6.34,10.63,9.51,22.97,9.51,37.02,0,13.27-3.17,25.07-9.51,35.41-6.34,10.34-15.12,18.44-26.34,24.29-11.22,5.85-23.95,8.78-38.19,8.78h-41.55v76.37c0,3.71-1.17,6.73-3.51,9.07s-5.37,3.51-9.07,3.51ZM670.94,120.12h41.55c9.56,0,18.09-1.9,25.6-5.71,7.51-3.8,13.41-9.07,17.7-15.8,4.29-6.73,6.44-14.38,6.44-22.97,0-9.36-2.15-17.6-6.44-24.73-4.29-7.12-10.2-12.68-17.7-16.68-7.51-4-16.05-6-25.6-6h-41.55v91.88ZM780.38,233.07c-2.54,0-4.68-.54-6.44-1.61-1.76-1.07-3.22-2.68-4.39-4.83l-55.31-88.08,24.87-6.44,51.21,81.64c3.12,4.88,3.66,9.32,1.61,13.31-2.05,4-5.9,6-11.56,6Z"></path>
    <path class="cls-1" d="M840.37,233.07c-3.71,0-6.73-1.17-9.07-3.51-2.34-2.34-3.51-5.36-3.51-9.07V17.12c0-3.7,1.17-6.73,3.51-9.07,2.34-2.34,5.36-3.51,9.07-3.51h135.78c3.51,0,6.44,1.12,8.78,3.37,2.34,2.25,3.51,5.12,3.51,8.63,0,3.32-1.17,6.1-3.51,8.34-2.34,2.25-5.27,3.37-8.78,3.37h-123.19v77.84h89.25c3.7,0,6.73,1.17,9.07,3.51,2.34,2.34,3.51,5.17,3.51,8.49,0,3.51-1.17,6.39-3.51,8.63-2.34,2.25-5.37,3.37-9.07,3.37h-89.25v79.3h123.19c3.51,0,6.44,1.12,8.78,3.36,2.34,2.25,3.51,5.02,3.51,8.34,0,3.51-1.17,6.39-3.51,8.63-2.34,2.25-5.27,3.37-8.78,3.37h-135.78Z"></path>
    <path class="cls-1" d="M1043.44,233.07c-3.51,0-6.49-1.22-8.92-3.66-2.44-2.44-3.66-5.41-3.66-8.92V17.12c0-3.7,1.22-6.73,3.66-9.07,2.44-2.34,5.41-3.51,8.92-3.51,5.07,0,8.78,2.15,11.12,6.44l96.57,192.25h-9.66l94.52-192.25c2.53-4.29,6.24-6.44,11.12-6.44,3.51,0,6.44,1.17,8.78,3.51s3.51,5.37,3.51,9.07v203.37c0,3.51-1.17,6.49-3.51,8.92-2.34,2.44-5.27,3.66-8.78,3.66-3.71,0-6.78-1.22-9.22-3.66-2.44-2.44-3.66-5.41-3.66-8.92V50.47l5.27-.29-83.4,170.31c-2.34,4.1-5.95,6.15-10.83,6.15-5.27,0-9.17-2.53-11.71-7.61l-83.4-167.09,5.85-1.46v170.01c0,3.51-1.22,6.49-3.66,8.92-2.44,2.44-5.41,3.66-8.93,3.66Z"></path>
    <path class="cls-1" d="M1330.5,233.07c-3.71,0-6.73-1.17-9.07-3.51-2.34-2.34-3.51-5.36-3.51-9.07V17.12c0-3.7,1.17-6.73,3.51-9.07,2.34-2.34,5.36-3.51,9.07-3.51s6.73,1.17,9.07,3.51c2.34,2.34,3.51,5.37,3.51,9.07v203.37c0,3.71-1.17,6.73-3.51,9.07s-5.37,3.51-9.07,3.51Z"></path>
    <path class="cls-1" d="M1414.19,233.07c-3.71,0-6.73-1.17-9.07-3.51-2.34-2.34-3.51-5.36-3.51-9.07V17.12c0-3.7,1.17-6.73,3.51-9.07,2.34-2.34,5.36-3.51,9.07-3.51h135.78c3.51,0,6.44,1.12,8.78,3.37,2.34,2.25,3.51,5.12,3.51,8.63,0,3.32-1.17,6.1-3.51,8.34-2.34,2.25-5.27,3.37-8.78,3.37h-123.19v77.84h89.25c3.7,0,6.73,1.17,9.07,3.51,2.34,2.34,3.51,5.17,3.51,8.49,0,3.51-1.17,6.39-3.51,8.63-2.34,2.25-5.37,3.37-9.07,3.37h-89.25v79.3h123.19c3.51,0,6.44,1.12,8.78,3.36,2.34,2.25,3.51,5.02,3.51,8.34,0,3.51-1.17,6.39-3.51,8.63-2.34,2.25-5.27,3.37-8.78,3.37h-135.78Z"></path>
    <path class="cls-1" d="M1617.26,233.07c-3.71,0-6.73-1.17-9.07-3.51-2.34-2.34-3.51-5.36-3.51-9.07V17.12c0-3.7,1.17-6.73,3.51-9.07,2.34-2.34,5.36-3.51,9.07-3.51h54.14c14.24,0,26.97,3.03,38.19,9.07,11.22,6.05,19.99,14.39,26.34,25.02,6.34,10.63,9.51,22.97,9.51,37.02,0,13.27-3.17,25.07-9.51,35.41-6.34,10.34-15.12,18.44-26.34,24.29-11.22,5.85-23.95,8.78-38.19,8.78h-41.55v76.37c0,3.71-1.17,6.73-3.51,9.07s-5.37,3.51-9.07,3.51ZM1629.85,120.12h41.55c9.56,0,18.09-1.9,25.6-5.71,7.51-3.8,13.41-9.07,17.7-15.8,4.29-6.73,6.44-14.38,6.44-22.97,0-9.36-2.15-17.6-6.44-24.73-4.29-7.12-10.2-12.68-17.7-16.68-7.51-4-16.05-6-25.6-6h-41.55v91.88ZM1739.29,233.07c-2.54,0-4.68-.54-6.44-1.61-1.76-1.07-3.22-2.68-4.39-4.83l-55.31-88.08,24.87-6.44,51.21,81.64c3.12,4.88,3.66,9.32,1.61,13.31-2.05,4-5.9,6-11.56,6Z"></path>
    <path class="cls-1" d="M203.18,0C90.97,0,0,90.97,0,203.18s90.97,203.18,203.18,203.18,203.18-90.97,203.18-203.18S315.4,0,203.18,0ZM225.38,234.49v.02h-28.09v-59.31h28.09l3.9.07c48.82-6.8,45.27-76.83-4.29-78.39-22.07-.03-39.9,18.28-39.3,40.33h-.33v137.49s6.35,63.07-72,92.26v-68.11s13-10.01,13-24.15v-137.49h0,0v-1.78c.24-54.05,44.28-98.07,98.55-98.03,130.56,5.18,130.7,191.48.47,197.09Z"></path>
  </g>
</svg>
